<svg xmlns="http://www.w3.org/2000/svg" version="1.1" viewBox="62.08 51.38 885.02 159">
<path d="M0 0 C2.94922468 1.33872656 4.24507486 1.06005679 7.2890625 0.0390625 C9.65651702 -1.21465912 9.65651702 -1.21465912 11.9765625 -2.7734375 C29.46435028 -13.5391154 50.7968675 -15.61824466 70.7890625 -11.8359375 C82.72156342 -8.7708387 92.71783382 -3.65918943 102.2890625 4.0390625 C102.95292969 4.55082031 103.61679687 5.06257813 104.30078125 5.58984375 C105.67982409 6.6795769 106.99486817 7.84980285 108.2890625 9.0390625 C108.2890625 9.6990625 108.2890625 10.3590625 108.2890625 11.0390625 C108.9490625 11.0390625 109.6090625 11.0390625 110.2890625 11.0390625 C118.98625842 21.16259855 125.76402411 32.10858075 129.2890625 45.0390625 C129.46711426 45.6885083 129.64516602 46.3379541 129.82861328 47.00708008 C131.38440338 53.21564192 131.67428696 59.21740994 131.6640625 65.6015625 C131.66245117 66.65279297 131.66083984 67.70402344 131.65917969 68.78710938 C131.47388074 80.66804178 129.34685333 91.65427822 123.2890625 102.0390625 C125.5990625 102.3690625 127.9090625 102.6990625 130.2890625 103.0390625 C130.67125017 104.69520907 131.00301352 106.36363274 131.2890625 108.0390625 C130.2890625 109.0390625 130.2890625 109.0390625 126.8515625 109.2890625 C125.6759375 109.2065625 124.5003125 109.1240625 123.2890625 109.0390625 C122.6290625 108.0490625 121.9690625 107.0590625 121.2890625 106.0390625 C120.83917969 106.70550781 120.38929688 107.37195313 119.92578125 108.05859375 C106.64841263 127.08328025 89.39569059 139.77909238 66.4765625 144.4140625 C44.99344307 147.21240641 28.11201779 143.24587628 9.2890625 133.0390625 C6.32536117 131.37017978 6.32536117 131.37017978 3.0390625 131.1015625 C0.06692655 131.9857009 0.06692655 131.9857009 -3.0234375 134.2265625 C-19.4214005 144.84972497 -40.92910156 147.54070122 -59.8359375 143.8515625 C-81.67058412 138.54043224 -99.54248861 126.02402056 -111.7109375 107.0390625 C-122.71636351 87.04394114 -125.36472569 65.06982043 -119.7109375 43.0390625 C-113.30978578 23.22036372 -99.30832836 5.51232716 -80.81054688 -4.2121582 C-54.70879891 -17.40568128 -24.42735045 -16.58445532 0 0 Z " fill="#F69E1A" transform="translate(184.7109375,64.9609375)"/>
<path d="M0 0 C1 1 1 1 1.0625 3.5625 C1.041875 4.366875 1.02125 5.17125 1 6 C0.34 6 -0.32 6 -1 6 C-1.495 7.485 -1.495 7.485 -2 9 C-3.11185427 9.93767344 -4.26521707 10.82656787 -5.4375 11.6875 C-14.50296885 19.38089789 -20.89654708 31.66565021 -24 43 C-24.34804687 44.1240625 -24.69609375 45.248125 -25.0546875 46.40625 C-26.59541773 52.65134321 -26.46896878 59.10272003 -26.625 65.5 C-26.66367188 66.799375 -26.70234375 68.09875 -26.7421875 69.4375 C-26.83593347 72.62486286 -26.92164349 75.8122279 -27 79 C-26.34 79 -25.68 79 -25 79 C-25 81.64 -25 84.28 -25 87 C-24.34 87 -23.68 87 -23 87 C-22.86464844 87.58265625 -22.72929687 88.1653125 -22.58984375 88.765625 C-20.85149915 95.38590744 -18.03635086 100.73041766 -14.42578125 106.53125 C-13 109 -13 109 -13 111 C-12.34 111 -11.68 111 -11 111 C-7 116.41176471 -7 116.41176471 -7 119 C-6.4225 119.28875 -5.845 119.5775 -5.25 119.875 C-4.5075 120.24625 -3.765 120.6175 -3 121 C-2.278125 121.268125 -1.55625 121.53625 -0.8125 121.8125 C1 123 1 123 1.61328125 125.57421875 C1.74089844 126.37472656 1.86851562 127.17523438 2 128 C-14.67017122 140.79767569 -34.15052727 145.39870677 -55 144 C-77.81515541 140.83260315 -96.6095351 129.3602581 -110.51635742 111.0859375 C-123.04575237 93.82265927 -126.99675691 72.18188314 -123.9375 51.375 C-120.52527437 30.70980284 -108.4712964 12.66854387 -91.93359375 -0.05078125 C-63.1785652 -19.15698531 -28.78896773 -18.71875268 0 0 Z " fill="#E9011B" transform="translate(187,66)"/>
<path d="M0 0 C0.23203125 0.58265625 0.4640625 1.1653125 0.703125 1.765625 C2.31538369 4.54337189 4.16546064 5.85467113 6.75 7.75 C18.89906204 17.28823209 28.01117894 34.66117369 30 50 C31.86448006 73.85186658 27.95733636 96.33036851 12 115 C11.34 115 10.68 115 10 115 C9.505 116.485 9.505 116.485 9 118 C8.34 118 7.68 118 7 118 C6.505 119.485 6.505 119.485 6 121 C2.55555556 124 2.55555556 124 0 124 C0 123.34 0 122.68 0 122 C-0.556875 121.938125 -1.11375 121.87625 -1.6875 121.8125 C-6.22463364 120.21837196 -9.41483109 115.94578412 -12 112 C-12 111.34 -12 110.68 -12 110 C-12.66 110 -13.32 110 -14 110 C-15.49640668 107.50901191 -16.97172965 105.0089362 -18.4375 102.5 C-19.06881836 101.45585937 -19.06881836 101.45585937 -19.71289062 100.390625 C-22.54349616 95.49933863 -23.65022492 91.64727769 -24 86 C-24.66 86 -25.32 86 -26 86 C-26 83.36 -26 80.72 -26 78 C-26.66 78 -27.32 78 -28 78 C-28.83538048 47.09734836 -28.83538048 47.09734836 -24 36 C-23.56429687 34.97519531 -23.12859375 33.95039062 -22.6796875 32.89453125 C-17.93807623 22.67286105 -11.81991657 14.0199336 -3 7 C-2.67 6.34 -2.34 5.68 -2 5 C-1.34 5 -0.68 5 0 5 C0 3.35 0 1.7 0 0 Z " fill="#FE5E01" transform="translate(188,67)"/>
<path d="M0 0 C1.74609375 0.875 1.74609375 0.875 3.93359375 2.6875 C4.53171875 3.079375 5.12984375 3.47125 5.74609375 3.875 C8.59974253 3.1615878 10.43456648 2.11838068 12.74609375 0.3125 C17.31232589 -2.96947935 23.33781471 -2.4700109 28.74609375 -2.125 C34.83778147 -1.07470901 38.70580634 1.32690225 42.74609375 5.875 C46.36528439 11.90401672 47.31411208 17.35422569 47.13671875 24.28515625 C47.13105896 25.13806747 47.12539917 25.9909787 47.11956787 26.86973572 C47.09740665 29.55959305 47.04725234 32.24805416 46.99609375 34.9375 C46.97600241 36.77537121 46.95775629 38.61326357 46.94140625 40.45117188 C46.89760889 44.92630866 46.82872683 49.40041871 46.74609375 53.875 C41.79609375 53.875 36.84609375 53.875 31.74609375 53.875 C31.70871094 51.40644531 31.67132813 48.93789062 31.6328125 46.39453125 C31.58655687 43.99494739 31.53533804 41.59551703 31.48364258 39.19604492 C31.4504572 37.53272892 31.42240541 35.86930204 31.3996582 34.20581055 C31.36599376 31.80990501 31.31367435 29.41500965 31.2578125 27.01953125 C31.25142258 26.2797554 31.24503265 25.53997955 31.2384491 24.77778625 C31.11279404 20.33191138 30.49119615 17.41355268 27.74609375 13.875 C23.96672016 11.98531321 19.87724884 12.60450639 15.87109375 13.5625 C13.55235902 14.66734372 13.55235902 14.66734372 13.13085938 16.97753906 C12.66282857 20.50202484 12.53438693 23.99738675 12.46484375 27.546875 C12.44643433 28.26989807 12.4280249 28.99292114 12.40905762 29.737854 C12.33066743 32.81679095 12.26230213 35.89592598 12.19384766 38.97509766 C12.14228359 41.22830544 12.08501578 43.48131663 12.02734375 45.734375 C12.01376831 46.43536316 12.00019287 47.13635132 11.98620605 47.85858154 C11.85900953 52.76208422 11.85900953 52.76208422 10.74609375 53.875 C8.3929582 53.94771741 6.03775707 53.95870868 3.68359375 53.9375 C2.39324219 53.92847656 1.10289062 53.91945312 -0.2265625 53.91015625 C-1.22558594 53.89855469 -2.22460938 53.88695312 -3.25390625 53.875 C-3.26848877 52.87645996 -3.28307129 51.87791992 -3.2980957 50.84912109 C-3.35630693 47.12513394 -3.43353702 43.40173708 -3.51635742 39.67822266 C-3.54949988 38.0702476 -3.57756479 36.46215919 -3.6003418 34.85400391 C-3.63408592 32.53499295 -3.68640819 30.21701069 -3.7421875 27.8984375 C-3.74857742 27.18569672 -3.75496735 26.47295593 -3.7615509 25.73861694 C-3.89680372 21.09047543 -4.79632215 17.82596662 -7.25390625 13.875 C-10.83409636 12.08490495 -14.81587358 12.40861103 -18.56640625 13.625 C-20.75677188 15.24749306 -21.27823515 16.30461131 -22.25390625 18.875 C-22.48973027 21.58715682 -22.62587129 24.20701064 -22.66796875 26.921875 C-22.6873349 27.69307678 -22.70670105 28.46427856 -22.72665405 29.2588501 C-22.78627702 31.71412205 -22.83276539 34.16944133 -22.87890625 36.625 C-22.917102 38.29298882 -22.95615466 39.96095826 -22.99609375 41.62890625 C-23.09196416 45.71077943 -23.1760586 49.79274493 -23.25390625 53.875 C-28.20390625 53.875 -33.15390625 53.875 -38.25390625 53.875 C-38.27854618 46.20288327 -38.29673748 38.53078935 -38.30883789 30.85864258 C-38.31388002 28.24633381 -38.3207135 25.63402789 -38.3293457 23.02172852 C-38.34141661 19.27619732 -38.3471356 15.53070328 -38.3515625 11.78515625 C-38.35672379 10.60913345 -38.36188507 9.43311066 -38.36720276 8.22145081 C-38.36731606 6.59988319 -38.36731606 6.59988319 -38.36743164 4.94555664 C-38.36965225 3.98847305 -38.37187286 3.03138947 -38.37416077 2.04530334 C-38.25390625 -0.125 -38.25390625 -0.125 -37.25390625 -1.125 C-35.29859861 -1.25048989 -33.33820146 -1.30075363 -31.37890625 -1.3125 C-29.77402344 -1.33376953 -29.77402344 -1.33376953 -28.13671875 -1.35546875 C-25.25390625 -1.125 -25.25390625 -1.125 -22.25390625 0.875 C-20.30382595 0.14785141 -18.35569191 -0.58628887 -16.4296875 -1.375 C-10.66548736 -3.36194152 -5.51433098 -2.23583011 0 0 Z " fill="#020202" transform="translate(402.25390625,104.125)"/>
<path d="M0 0 C1.1859375 0.00257812 2.371875 0.00515625 3.59375 0.0078125 C4.7796875 0.00523438 5.965625 0.00265625 7.1875 0 C10.09375 0.1328125 10.09375 0.1328125 11.09375 1.1328125 C11.18818335 3.43335085 11.21117128 5.73683423 11.20727539 8.03930664 C11.20742142 8.76121689 11.20756744 9.48312714 11.2077179 10.22691345 C11.20701869 12.62396197 11.19922595 15.02093373 11.19140625 17.41796875 C11.1895421 19.07563739 11.18811818 20.73330657 11.18711853 22.39097595 C11.18329312 26.76235464 11.17346265 31.13370031 11.16241455 35.50506592 C11.15220092 39.96235711 11.14762101 44.41965361 11.14257812 48.87695312 C11.1318404 57.62892312 11.11424342 66.3808599 11.09375 75.1328125 C6.14375 75.1328125 1.19375 75.1328125 -3.90625 75.1328125 C-4.23625 74.4728125 -4.56625 73.8128125 -4.90625 73.1328125 C-5.793125 73.6278125 -6.68 74.1228125 -7.59375 74.6328125 C-14.46449177 77.54556104 -22.89114695 77.30747673 -29.78125 74.5703125 C-36.72986553 70.92388306 -41.33065361 65.73519639 -44.1875 58.4453125 C-46.75382729 50.18843339 -46.48606087 41.52081094 -42.71484375 33.64453125 C-38.67262833 27.09107573 -33.62233405 22.61924612 -26.46875 19.7578125 C-18.73254794 18.40058407 -13.09856329 18.92195835 -5.90625 22.1328125 C-5.57625 22.4628125 -5.24625 22.7928125 -4.90625 23.1328125 C-4.86866577 22.14099976 -4.86866577 22.14099976 -4.83032227 21.12915039 C-4.71471898 18.15098945 -4.59183246 15.1731733 -4.46875 12.1953125 C-4.42943359 11.15439453 -4.39011719 10.11347656 -4.34960938 9.04101562 C-4.28676758 7.55698242 -4.28676758 7.55698242 -4.22265625 6.04296875 C-4.18599854 5.12652588 -4.14934082 4.21008301 -4.11157227 3.26586914 C-3.79240366 -0.049917 -3.40235488 0.15548396 0 0 Z M-28.71875 38.1953125 C-30.89007383 43.56648197 -31.87005548 49.44446491 -29.84375 55.0078125 C-27.04063325 59.52896854 -24.04297648 61.43605387 -19.03125 63.0703125 C-14.81430556 63.15465139 -11.58302979 62.18679183 -7.90625 60.1328125 C-4.26664712 56.39988647 -3.03528223 53.65539283 -2.59375 48.4453125 C-2.67272232 43.68942419 -4.07894489 39.95230854 -6.90625 36.1328125 C-13.82550688 31.10062567 -22.94588432 31.62618948 -28.71875 38.1953125 Z " fill="#020202" transform="translate(919.90625,82.8671875)"/>
<path d="M0 0 C0.33 -0.99 0.66 -1.98 1 -3 C2.95825873 -3.02694851 4.91662226 -3.04637218 6.875 -3.0625 C8.51082031 -3.07990234 8.51082031 -3.07990234 10.1796875 -3.09765625 C13 -3 13 -3 15 -2 C15 15.82 15 33.64 15 52 C10.05 52 5.1 52 0 52 C-0.33 51.34 -0.66 50.68 -1 50 C-1.83789062 50.48597656 -2.67578125 50.97195312 -3.5390625 51.47265625 C-9.92521696 54.29092532 -17.88788192 54.21494398 -24.578125 52.23828125 C-26.53325543 51.29429652 -28.23871305 50.26496419 -30 49 C-31.3303125 48.13375 -31.3303125 48.13375 -32.6875 47.25 C-39.07980087 41.03046402 -41.86295985 33.957216 -42.06640625 25.11328125 C-41.67602833 15.87433723 -39.01251038 8.51455581 -32.25 2.0625 C-21.96189419 -6.12165922 -11.3676509 -5.31597871 0 0 Z M-24.875 16.25 C-27.00853444 21.4653064 -27.62384517 25.89161327 -25.9375 31.25 C-24.14108887 35.32400381 -22.15500357 37.18690753 -18 39 C-12.99951474 39.78056355 -9.18865822 39.54029919 -4.5625 37.4375 C-0.74596213 33.80713471 0.85827445 30.70996437 1.12890625 25.53515625 C0.82519577 19.41492989 -0.45971632 16.12753062 -5 12 C-12.38468977 7.83427757 -19.64795556 9.97754667 -24.875 16.25 Z " fill="#050505" transform="translate(497,106)"/>
<path d="M0 0 C0.33 -0.99 0.66 -1.98 1 -3 C2.97909398 -3.02686553 4.95828971 -3.04633375 6.9375 -3.0625 C8.03964844 -3.07410156 9.14179687 -3.08570312 10.27734375 -3.09765625 C13 -3 13 -3 14 -2 C14.09353163 -0.31198015 14.11744791 1.37995207 14.11352539 3.07055664 C14.11344986 4.15160172 14.11337433 5.23264679 14.11329651 6.34645081 C14.10813522 7.5224736 14.10297394 8.6984964 14.09765625 9.91015625 C14.0962413 11.10732773 14.09482635 12.30449921 14.09336853 13.53794861 C14.08774979 17.37949066 14.07519411 21.22097543 14.0625 25.0625 C14.05748741 27.65950437 14.05292409 30.25650965 14.04882812 32.85351562 C14.03777427 39.23569932 14.02049708 45.61783993 14 52 C9.38 52 4.76 52 0 52 C-0.33 51.01 -0.66 50.02 -1 49 C-1.86625 49.66 -2.7325 50.32 -3.625 51 C-9.3374239 54.23279162 -15.66144794 53.80377635 -22 53 C-30.41343714 50.45456922 -35.04744508 45.37792626 -39.8125 38.3125 C-43.3372219 31.44856788 -43.10949706 22.36325527 -41.24609375 15.03515625 C-37.77755129 5.98974161 -32.6762222 1.22447799 -24 -3 C-14.95251831 -5.27892827 -8.44200382 -3.47611922 0 0 Z M-25.8125 16.25 C-28.09440481 21.53441114 -28.52349127 25.34686967 -26.8125 30.75 C-24.60209648 34.71348218 -22.66231916 37.03031382 -18.75 39.3125 C-14.31583828 40.42104043 -10.18050778 40.28434304 -6.22265625 37.953125 C-2.53178421 35.0293046 -0.29512937 32.32270647 0.30078125 27.6328125 C0.32541254 22.36171544 0.16893157 18.4365042 -3 14 C-7.10263318 10.28809379 -10.44085808 9.35064795 -15.8203125 9.61328125 C-20.31578112 10.41086439 -23.02197021 12.78589406 -25.8125 16.25 Z " fill="#040404" transform="translate(813,106)"/>
<path d="M0 0 C5.91635596 5.0557951 9.74457374 11.29930499 11 19 C11.08895063 20.91505483 11.13018139 22.83288749 11.125 24.75 C11.12886719 26.19632813 11.12886719 26.19632813 11.1328125 27.671875 C11 30 11 30 10 31 C7.33573315 31.16003488 4.69439572 31.25942889 2.02734375 31.31640625 C0.83087975 31.3475779 0.83087975 31.3475779 -0.38975525 31.37937927 C-2.94724611 31.44496158 -5.5048428 31.50379967 -8.0625 31.5625 C-9.79232882 31.60567699 -11.52214679 31.64929101 -13.25195312 31.69335938 C-17.5011926 31.80065172 -21.7505389 31.90189426 -26 32 C-24.01328158 35.68429389 -24.01328158 35.68429389 -20.875 38.3125 C-14.02962772 39.94943685 -8.8862189 39.53507556 -2.82421875 35.875 C-1 35 -1 35 3 35 C4.51953125 36.609375 4.51953125 36.609375 5.8125 38.75 C6.25207031 39.44609375 6.69164062 40.1421875 7.14453125 40.859375 C8 43 8 43 7.90625 45.09765625 C6.66591995 47.7012801 5.22658902 48.37016576 2.6875 49.6875 C1.90761719 50.10386719 1.12773438 50.52023438 0.32421875 50.94921875 C-7.12497329 54.31700473 -17.18415997 54.32979325 -25.02734375 52.1640625 C-32.12306113 48.90593649 -37.60743173 43.52931205 -40.9375 36.4375 C-43.32560209 28.88512713 -43.38776518 19.34913014 -40.375 12 C-36.45191996 4.7162395 -31.80663003 -0.06066157 -24 -3 C-15.6622581 -5.44071423 -7.60392056 -4.11208997 0 0 Z M-24.3125 12.875 C-26.31765941 15.09938858 -26.31765941 15.09938858 -27 19 C-19.41 19 -11.82 19 -4 19 C-6.18059833 12.15174105 -6.18059833 12.15174105 -10 10 C-15.67895808 8.48561118 -19.70812019 9.14171907 -24.3125 12.875 Z " fill="#020202" transform="translate(664,106)"/>
<path d="M0 0 C-0.67097672 4.19360449 -2.8558394 7.40334352 -5 11 C-8.90493874 10.50149718 -12.62405273 9.85484409 -16.4375 8.875 C-20.93180378 7.82478468 -24.4790536 8.17800975 -29 9 C-29.33 10.65 -29.66 12.3 -30 14 C-29.09378906 14.10957031 -28.18757812 14.21914062 -27.25390625 14.33203125 C-8.18613139 16.81386861 -8.18613139 16.81386861 -1 24 C1.75104263 28.47515496 1.50109239 32.90017259 1 38 C-0.75116936 43.45952799 -4.06367387 46.3545126 -9 49 C-13.95662909 51.06045919 -18.39977602 51.38503046 -23.6875 51.375 C-24.47970947 51.37483887 -25.27191895 51.37467773 -26.08813477 51.37451172 C-33.93141195 51.22268058 -40.44391973 49.37072018 -47 45 C-46.52389341 40.00088076 -44.96837781 37.02167317 -42 33 C-39.25662271 33.61966636 -37.11497879 34.39509875 -34.5 35.5625 C-28.1270297 38.01824983 -20.52721685 37.92708307 -14 36 C-14.495 34.02 -14.495 34.02 -15 32 C-19.17739903 30.70036475 -23.24149039 29.76495921 -27.5625 29.0625 C-34.67123486 27.78059699 -39.27173411 25.57496342 -43.796875 19.8828125 C-46.15824506 16.18742169 -46.36265819 12.98435611 -45.5859375 8.734375 C-44.0578211 3.17424065 -41.99610209 0.14569391 -37 -3 C-25.34000747 -8.61407048 -10.73738436 -6.96953858 0 0 Z " fill="#060505" transform="translate(567,108)"/>
<path d="M0 0 C3.35286458 0.03255208 6.70572917 0.06510417 10.05859375 0.09765625 C10.05859375 5.04765625 10.05859375 9.99765625 10.05859375 15.09765625 C11.26257813 15.07445313 12.4665625 15.05125 13.70703125 15.02734375 C15.2825459 15.00858762 16.85806723 14.99038726 18.43359375 14.97265625 C19.22765625 14.95589844 20.02171875 14.93914062 20.83984375 14.921875 C22.9135139 14.90430152 24.98742616 14.99430457 27.05859375 15.09765625 C29.05859375 17.09765625 29.05859375 17.09765625 29.2890625 19.6640625 C29.27488281 20.65277344 29.26070312 21.64148438 29.24609375 22.66015625 C29.23964844 23.65144531 29.23320313 24.64273438 29.2265625 25.6640625 C29.05859375 28.09765625 29.05859375 28.09765625 28.05859375 29.09765625 C26.71591962 29.18397499 25.36885053 29.20472098 24.0234375 29.1953125 C23.21455078 29.19208984 22.40566406 29.18886719 21.57226562 29.18554688 C20.72212891 29.17716797 19.87199219 29.16878906 18.99609375 29.16015625 C18.14208984 29.15564453 17.28808594 29.15113281 16.40820312 29.14648438 C14.29163712 29.13465998 12.1751069 29.11672394 10.05859375 29.09765625 C10.16858983 32.84825428 10.29919244 36.59785969 10.43359375 40.34765625 C10.46453125 41.41113281 10.49546875 42.47460938 10.52734375 43.5703125 C10.56601562 44.59511719 10.6046875 45.61992187 10.64453125 46.67578125 C10.6916626 48.08972168 10.6916626 48.08972168 10.73974609 49.53222656 C11.06460352 52.14601054 11.73535537 53.84118659 13.05859375 56.09765625 C18.21030998 56.18803724 22.97772579 55.94446758 28.05859375 55.09765625 C28.59253554 56.50943455 29.11024479 57.92735869 29.62109375 59.34765625 C29.91113281 60.1365625 30.20117188 60.92546875 30.5 61.73828125 C31.11808896 64.34895072 31.12633456 65.6450239 30.05859375 68.09765625 C23.14930532 71.89099107 15.78979623 71.91582155 8.05859375 71.09765625 C2.64981091 69.48323034 -0.29309846 65.98683986 -2.94140625 61.09765625 C-4.11387189 57.59227723 -4.05577485 54.25874873 -4.0390625 50.58203125 C-4.03583984 49.33164063 -4.03261719 48.08125 -4.02929688 46.79296875 C-4.02091797 45.49101562 -4.01253906 44.1890625 -4.00390625 42.84765625 C-3.99939453 41.53023437 -3.99488281 40.2128125 -3.99023438 38.85546875 C-3.97844941 35.60281884 -3.96199636 32.35026041 -3.94140625 29.09765625 C-7.24140625 29.09765625 -10.54140625 29.09765625 -13.94140625 29.09765625 C-13.96826563 26.95188988 -13.98773713 24.8060298 -14.00390625 22.66015625 C-14.01550781 21.46519531 -14.02710938 20.27023438 -14.0390625 19.0390625 C-13.94140625 16.09765625 -13.94140625 16.09765625 -12.94140625 15.09765625 C-10.27081774 14.95650464 -7.61708387 15.05518518 -4.94140625 15.09765625 C-4.88082031 14.09863281 -4.82023438 13.09960938 -4.7578125 12.0703125 C-4.67402344 10.77996094 -4.59023438 9.48960938 -4.50390625 8.16015625 C-4.42269531 6.87238281 -4.34148438 5.58460937 -4.2578125 4.2578125 C-3.84428395 0.12763227 -3.84428395 0.12763227 0 0 Z " fill="#020202" transform="translate(586.94140625,87.90234375)"/>
<path d="M0 0 C0.928125 0.8971875 0.928125 0.8971875 1.875 1.8125 C1.20402328 6.00610449 -0.9808394 9.21584352 -3.125 12.8125 C-8.67246909 12.05602694 -8.67246909 12.05602694 -11.01953125 10.79296875 C-14.87230711 8.99881895 -18.968959 9.38745035 -23.125 9.8125 C-26.62315233 11.15221791 -27.78434586 12.33088552 -29.9375 15.375 C-31.98198904 21.29325774 -32.17218093 26.50870196 -29.5625 32.25 C-26.70239703 35.25677492 -24.22621194 37.1510142 -20.125 37.8125 C-14.60039048 37.36597847 -9.30929734 35.72250428 -4.125 33.8125 C-3.08887729 35.21802299 -2.07155075 36.63741694 -1.0625 38.0625 C-0.49402344 38.85140625 0.07445312 39.6403125 0.66015625 40.453125 C1.875 42.8125 1.875 42.8125 1.765625 44.97265625 C0.22727761 48.1505581 -3.01461209 49.44083825 -6.125 50.8125 C-13.70633273 53.36212415 -24.45277806 53.14998489 -31.6875 49.75 C-39.26159882 45.18008155 -43.77288081 40.22575379 -46.46484375 31.70703125 C-48.43416595 23.07231084 -47.47323752 15.54697558 -43.125 7.8125 C-38.5659923 1.12980264 -33.40269355 -2.52085993 -25.75 -4.9375 C-16.49757682 -5.81868316 -7.84542456 -5.49179719 0 0 Z " fill="#040404" transform="translate(766.125,107.1875)"/>
<path d="M0 0 C0.66 0.33 1.32 0.66 2 1 C1.45144652 5.571279 0.58255197 9.67435795 -1 14 C-1.81984375 13.96519531 -2.6396875 13.93039063 -3.484375 13.89453125 C-5.10085938 13.85392578 -5.10085938 13.85392578 -6.75 13.8125 C-7.81734375 13.77769531 -8.8846875 13.74289063 -9.984375 13.70703125 C-13.34736544 14.03374664 -14.63641253 14.63089013 -17 17 C-18.22318866 20.66956597 -18.23116124 24.12321003 -18.31640625 27.94921875 C-18.33718735 28.72183548 -18.35796844 29.49445221 -18.37937927 30.29048157 C-18.44471038 32.7560648 -18.50368315 35.22175361 -18.5625 37.6875 C-18.60570087 39.36003691 -18.64931566 41.03256319 -18.69335938 42.70507812 C-18.8003749 46.8032775 -18.90168857 50.90158296 -19 55 C-21.31243792 55.02685412 -23.6249627 55.04632841 -25.9375 55.0625 C-27.22527344 55.07410156 -28.51304687 55.08570313 -29.83984375 55.09765625 C-33 55 -33 55 -34 54 C-34.09861162 52.38402315 -34.12798763 50.76375762 -34.12939453 49.14477539 C-34.13254669 48.1102272 -34.13569885 47.07567902 -34.13894653 46.00978088 C-34.1369223 44.88377975 -34.13489807 43.75777863 -34.1328125 42.59765625 C-34.13376923 41.44962021 -34.13472595 40.30158417 -34.13571167 39.11875916 C-34.13639374 36.68504787 -34.13453758 34.25133477 -34.13037109 31.81762695 C-34.12502811 28.08215257 -34.13031269 24.34679871 -34.13671875 20.61132812 C-34.13605788 18.2526039 -34.13477653 15.89387975 -34.1328125 13.53515625 C-34.13483673 12.41117935 -34.13686096 11.28720245 -34.13894653 10.12916565 C-34.13421829 8.57261513 -34.13421829 8.57261513 -34.12939453 6.98461914 C-34.12820114 5.61014366 -34.12820114 5.61014366 -34.12698364 4.207901 C-34 2 -34 2 -33 0 C-31.06280622 -0.05406122 -29.12518079 -0.09282025 -27.1875 -0.125 C-26.10855469 -0.14820312 -25.02960937 -0.17140625 -23.91796875 -0.1953125 C-21 0 -21 0 -18 2 C-16.31153156 1.27164106 -14.62540863 0.53600305 -12.96484375 -0.25390625 C-8.63313662 -1.89874932 -4.35926077 -1.45308692 0 0 Z " fill="#010101" transform="translate(872,103)"/>
<path d="M0 0 C-0.49730652 4.97306516 -1.55302334 8.63799813 -4 13 C-4.83144531 12.98839844 -5.66289063 12.97679688 -6.51953125 12.96484375 C-8.14955078 12.95130859 -8.14955078 12.95130859 -9.8125 12.9375 C-11.43091797 12.92009766 -11.43091797 12.92009766 -13.08203125 12.90234375 C-16.06512169 12.86375234 -16.06512169 12.86375234 -19 14 C-20.59303589 17.71379394 -20.20832696 22.02699934 -20.28125 26.01171875 C-20.29965942 26.78054886 -20.31806885 27.54937897 -20.33703613 28.34150696 C-20.41559646 31.62442365 -20.48372061 34.90753457 -20.55224609 38.19067383 C-20.60382279 40.58946336 -20.66109977 42.98806877 -20.71875 45.38671875 C-20.73232544 46.13459152 -20.74590088 46.88246429 -20.7598877 47.65299988 C-20.88711822 52.88711822 -20.88711822 52.88711822 -22 54 C-24.35313555 54.07271741 -26.70833668 54.08370868 -29.0625 54.0625 C-30.35285156 54.05347656 -31.64320313 54.04445312 -32.97265625 54.03515625 C-33.97167969 54.02355469 -34.97070312 54.01195312 -36 54 C-36.02526605 46.32788798 -36.04283123 38.6557866 -36.05493164 30.98364258 C-36.05997377 28.37133381 -36.06680725 25.75902789 -36.07543945 23.14672852 C-36.08751036 19.40119732 -36.09322935 15.65570328 -36.09765625 11.91015625 C-36.10281754 10.73413345 -36.10797882 9.55811066 -36.11329651 8.34645081 C-36.11340981 6.72488319 -36.11340981 6.72488319 -36.11352539 5.07055664 C-36.115746 4.11347305 -36.11796661 3.15638947 -36.12025452 2.17030334 C-36 0 -36 0 -35 -1 C-32.98035801 -1.07244053 -30.95832876 -1.08377188 -28.9375 -1.0625 C-27.28041016 -1.04896484 -27.28041016 -1.04896484 -25.58984375 -1.03515625 C-24.73519531 -1.02355469 -23.88054688 -1.01195313 -23 -1 C-22.67 -0.01 -22.34 0.98 -22 2 C-21.2575 1.525625 -20.515 1.05125 -19.75 0.5625 C-13.27042038 -3.11907933 -6.87475574 -2.68283151 0 0 Z " fill="#020101" transform="translate(719,104)"/>
<path d="M0 0 C0.33 0.99 0.66 1.98 1 3 C0.10796875 3.08636719 -0.7840625 3.17273438 -1.703125 3.26171875 C-2.87359375 3.40222656 -4.0440625 3.54273437 -5.25 3.6875 C-6.41015625 3.81511719 -7.5703125 3.94273438 -8.765625 4.07421875 C-12.68996376 5.19748963 -13.698914 6.73309121 -16 10 C-16.66 10 -17.32 10 -18 10 C-18 8.02 -18 6.04 -18 4 C-21.3 4 -24.6 4 -28 4 C-28 20.5 -28 37 -28 54 C-24.7 54 -21.4 54 -18 54 C-18.02356567 52.54762939 -18.02356567 52.54762939 -18.04760742 51.06591797 C-18.10213985 47.45418706 -18.13643419 43.84249215 -18.16479492 40.23046875 C-18.17982869 38.67083606 -18.20026135 37.11124528 -18.22631836 35.55175781 C-18.26294211 33.30262884 -18.27978021 31.05406153 -18.29296875 28.8046875 C-18.30845261 28.1138205 -18.32393646 27.42295349 -18.33988953 26.71115112 C-18.34148336 22.06714126 -17.46164385 18.93293344 -15 15 C-10.16558931 11.54684951 -5.69969959 11.65801802 0 12 C0.33 11.34 0.66 10.68 1 10 C1.66 10 2.32 10 3 10 C2.67 11.65 2.34 13.3 2 15 C1.16855469 14.98839844 0.33710937 14.97679688 -0.51953125 14.96484375 C-2.14955078 14.95130859 -2.14955078 14.95130859 -3.8125 14.9375 C-5.43091797 14.92009766 -5.43091797 14.92009766 -7.08203125 14.90234375 C-10.06512169 14.86375234 -10.06512169 14.86375234 -13 16 C-14.59303589 19.71379394 -14.20832696 24.02699934 -14.28125 28.01171875 C-14.29965942 28.78054886 -14.31806885 29.54937897 -14.33703613 30.34150696 C-14.41559646 33.62442365 -14.48372061 36.90753457 -14.55224609 40.19067383 C-14.60382279 42.58946336 -14.66109977 44.98806877 -14.71875 47.38671875 C-14.73232544 48.13459152 -14.74590088 48.88246429 -14.7598877 49.65299988 C-14.88711822 54.88711822 -14.88711822 54.88711822 -16 56 C-18.35313555 56.07271741 -20.70833668 56.08370868 -23.0625 56.0625 C-24.35285156 56.05347656 -25.64320313 56.04445312 -26.97265625 56.03515625 C-27.97167969 56.02355469 -28.97070312 56.01195312 -30 56 C-30.02526605 48.32788798 -30.04283123 40.6557866 -30.05493164 32.98364258 C-30.05997377 30.37133381 -30.06680725 27.75902789 -30.07543945 25.14672852 C-30.08751036 21.40119732 -30.09322935 17.65570328 -30.09765625 13.91015625 C-30.10281754 12.73413345 -30.10797882 11.55811066 -30.11329651 10.34645081 C-30.11340981 8.72488319 -30.11340981 8.72488319 -30.11352539 7.07055664 C-30.115746 6.11347305 -30.11796661 5.15638947 -30.12025452 4.17030334 C-30 2 -30 2 -29 1 C-26.98035801 0.92755947 -24.95832876 0.91622812 -22.9375 0.9375 C-21.28041016 0.95103516 -21.28041016 0.95103516 -19.58984375 0.96484375 C-18.73519531 0.97644531 -17.88054688 0.98804687 -17 1 C-16.67 1.99 -16.34 2.98 -16 4 C-15.2575 3.525625 -14.515 3.05125 -13.75 2.5625 C-9.05269371 -0.10642403 -5.39596325 -0.10376852 0 0 Z " fill="#2B2B2B" transform="translate(713,102)"/>
<path d="M0 0 C1.32 0.33 2.64 0.66 4 1 C4 25.42 4 49.84 4 75 C-0.95 75 -5.9 75 -11 75 C-11.33 74.34 -11.66 73.68 -12 73 C-12.886875 73.495 -13.77375 73.99 -14.6875 74.5 C-21.55824177 77.41274854 -29.98489695 77.17466423 -36.875 74.4375 C-44.84426495 70.25546371 -48.96402594 64.31592895 -52 56 C-51.34 55.34 -50.68 54.68 -50 54 C-49.67 55.98 -49.34 57.96 -49 60 C-48.34 60 -47.68 60 -47 60 C-46.7215625 61.051875 -46.7215625 61.051875 -46.4375 62.125 C-44.11537426 66.76925148 -40.33622328 69.8117485 -35.734375 72.15234375 C-32.26745105 73.22709017 -29.18994128 73.33846988 -25.5625 73.375 C-23.64630859 73.41753906 -23.64630859 73.41753906 -21.69140625 73.4609375 C-17.43435523 72.92936922 -15.39093316 71.54685915 -12 69 C-11.01 68.67 -10.02 68.34 -9 68 C-9 69.65 -9 71.3 -9 73 C-5.7 73 -2.4 73 1 73 C0.67 48.91 0.34 24.82 0 0 Z " fill="#272725" transform="translate(927,83)"/>
<path d="M0 0 C5.91635596 5.0557951 9.74457374 11.29930499 11 19 C11.08895063 20.91505483 11.13018139 22.83288749 11.125 24.75 C11.12886719 26.19632813 11.12886719 26.19632813 11.1328125 27.671875 C11 30 11 30 10 31 C7.1883662 31.08861992 4.40141745 31.11522355 1.58984375 31.09765625 C0.74780899 31.0962413 -0.09422577 31.09482635 -0.96177673 31.09336853 C-3.66205335 31.08775263 -6.36224828 31.07519748 -9.0625 31.0625 C-10.88867068 31.05748705 -12.71484266 31.05292379 -14.54101562 31.04882812 C-19.02737542 31.03777804 -23.51367384 31.02050279 -28 31 C-27.67 30.34 -27.34 29.68 -27 29 C-15.45 29 -3.9 29 8 29 C6.89168932 14.94667982 6.89168932 14.94667982 -0.9375 4 C-7.36320582 -0.19637931 -13.4624621 -0.75484777 -21 0 C-23.51500247 0.78679101 -25.62987723 1.81493861 -28 3 C-28.99 3 -29.98 3 -31 3 C-31 3.66 -31 4.32 -31 5 C-31.598125 5.5775 -32.19625 6.155 -32.8125 6.75 C-35.58344101 9.60011075 -38 12.89441335 -38 17 C-38.66 17 -39.32 17 -40 17 C-40 18.65 -40 20.3 -40 22 C-40.33 22 -40.66 22 -41 22 C-41.45531108 15.62564488 -40.74221553 11.2707261 -37 6 C-27.06240562 -5.21624648 -13.08611897 -7.07678337 0 0 Z " fill="#151514" transform="translate(664,106)"/>
<path d="M0 0 C2.64 0.99 5.28 1.98 8 3 C8.33 2.01 8.66 1.02 9 0 C10.97909398 -0.02686553 12.95828971 -0.04633375 14.9375 -0.0625 C16.03964844 -0.07410156 17.14179687 -0.08570312 18.27734375 -0.09765625 C21 0 21 0 22 1 C22.09353163 2.68801985 22.11744791 4.37995207 22.11352539 6.07055664 C22.11344986 7.15160172 22.11337433 8.23264679 22.11329651 9.34645081 C22.10813522 10.5224736 22.10297394 11.6984964 22.09765625 12.91015625 C22.0962413 14.10732773 22.09482635 15.30449921 22.09336853 16.53794861 C22.08774979 20.37949066 22.07519411 24.22097543 22.0625 28.0625 C22.05748741 30.65950437 22.05292409 33.25650965 22.04882812 35.85351562 C22.03777427 42.23569932 22.02049708 48.61783993 22 55 C17.38 55 12.76 55 8 55 C7.505 53.515 7.505 53.515 7 52 C6.34 52 5.68 52 5 52 C5 51.34 5 50.68 5 50 C5.66 50 6.32 50 7 50 C7 49.34 7 48.68 7 48 C7.66 48 8.32 48 9 48 C9 49.65 9 51.3 9 53 C12.3 53 15.6 53 19 53 C19 36.5 19 20 19 3 C15.7 3 12.4 3 9 3 C9 4.98 9 6.96 9 9 C8.52949219 8.66226563 8.05898438 8.32453125 7.57421875 7.9765625 C6.95160156 7.53054687 6.32898438 7.08453125 5.6875 6.625 C5.07261719 6.18414062 4.45773437 5.74328125 3.82421875 5.2890625 C2.2347608 4.16589093 0.61937829 3.07958553 -1 2 C-0.67 1.34 -0.34 0.68 0 0 Z " fill="#0A0A08" transform="translate(805,103)"/>
<path d="M0 0 C0.33 0 0.66 0 1 0 C1.61735256 17.00346575 2.18211519 33.98234737 2 51 C5.3 51 8.6 51 12 51 C11.98428955 50.0620459 11.9685791 49.1240918 11.95239258 48.15771484 C11.90108035 44.65765795 11.86356128 41.1580043 11.83520508 37.65771484 C11.82017457 36.14658273 11.79974436 34.63549382 11.77368164 33.12451172 C11.73704311 30.94487813 11.72021662 28.76582425 11.70703125 26.5859375 C11.6913208 25.2767334 11.67561035 23.9675293 11.65942383 22.61865234 C12.09352138 18.00632695 13.55517622 14.74582873 16.5 11.1875 C19.4828314 8.8260918 22.36589854 8.888829 26 8.9375 C27.299375 8.95103516 27.299375 8.95103516 28.625 8.96484375 C29.40875 8.97644531 30.1925 8.98804687 31 9 C31.99 9 32.98 9 34 9 C33.67 9.99 33.34 10.98 33 12 C32.18015625 11.96519531 31.3603125 11.93039063 30.515625 11.89453125 C28.89914062 11.85392578 28.89914062 11.85392578 27.25 11.8125 C26.18265625 11.77769531 25.1153125 11.74289063 24.015625 11.70703125 C20.65263456 12.03374664 19.36358747 12.63089013 17 15 C15.77681134 18.66956597 15.76883876 22.12321003 15.68359375 25.94921875 C15.66281265 26.72183548 15.64203156 27.49445221 15.62062073 28.29048157 C15.55528962 30.7560648 15.49631685 33.22175361 15.4375 35.6875 C15.39429913 37.36003691 15.35068434 39.03256319 15.30664062 40.70507812 C15.1996251 44.8032775 15.09831143 48.90158296 15 53 C12.68756208 53.02685412 10.3750373 53.04632841 8.0625 53.0625 C6.77472656 53.07410156 5.48695313 53.08570313 4.16015625 53.09765625 C1 53 1 53 0 52 C-0.09340434 50.37325222 -0.11745171 48.74245949 -0.11352539 47.11303711 C-0.11344986 46.07203354 -0.11337433 45.03102997 -0.11329651 43.95848083 C-0.10813522 42.8262056 -0.10297394 41.69393036 -0.09765625 40.52734375 C-0.0962413 39.37456436 -0.09482635 38.22178497 -0.09336853 37.03407288 C-0.08775005 33.33518936 -0.07519442 29.63636536 -0.0625 25.9375 C-0.05748738 23.43684983 -0.05292406 20.93619871 -0.04882812 18.43554688 C-0.03777462 12.29034412 -0.02101852 6.14517631 0 0 Z " fill="#5A5A5A" transform="translate(838,105)"/>
<path d="M0 0 C0.66 0 1.32 0 2 0 C2 3.96 2 7.92 2 12 C3.20398438 11.97679688 4.40796875 11.95359375 5.6484375 11.9296875 C7.22395215 11.91093137 8.79947348 11.89273101 10.375 11.875 C11.1690625 11.85824219 11.963125 11.84148437 12.78125 11.82421875 C14.85492015 11.80664527 16.92883241 11.89664832 19 12 C21 14 21 14 21.23046875 16.56640625 C21.20919922 18.04947266 21.20919922 18.04947266 21.1875 19.5625 C21.18105469 20.55378906 21.17460938 21.54507813 21.16796875 22.56640625 C21 25 21 25 20 26 C18.65732587 26.08631874 17.31025678 26.10706473 15.96484375 26.09765625 C15.15595703 26.09443359 14.34707031 26.09121094 13.51367188 26.08789062 C12.66353516 26.07951172 11.81339844 26.07113281 10.9375 26.0625 C10.08349609 26.05798828 9.22949219 26.05347656 8.34960938 26.04882812 C6.23304337 26.03700373 4.11651315 26.01906769 2 26 C2.10999608 29.75059803 2.24059869 33.50020344 2.375 37.25 C2.42140625 38.84521484 2.42140625 38.84521484 2.46875 40.47265625 C2.50742187 41.49746094 2.54609375 42.52226562 2.5859375 43.578125 C2.6173584 44.52075195 2.6487793 45.46337891 2.68115234 46.43457031 C3.01354427 49.10897643 3.4992436 50.76797733 5 53 C8.04199472 54.29231642 8.04199472 54.29231642 11 55 C11 55.66 11 56.32 11 57 C7.05707393 57.45847978 5.50024063 57.39364918 2.32348633 54.89379883 C-0.48785557 51.39239759 -0.58944474 49.81767943 -0.48828125 45.38671875 C-0.47216797 44.13955078 -0.45605469 42.89238281 -0.43945312 41.60742188 C-0.39755859 40.31384766 -0.35566406 39.02027344 -0.3125 37.6875 C-0.28994141 36.37458984 -0.26738281 35.06167969 -0.24414062 33.70898438 C-0.18528942 30.47216819 -0.09561212 27.23593894 0 24 C5.94 24 11.88 24 18 24 C18 21.03 18 18.06 18 15 C12.06 15 6.12 15 0 15 C0 10.05 0 5.1 0 0 Z " fill="#292827" transform="translate(595,91)"/>
<path d="M0 0 C0.66 0.33 1.32 0.66 2 1 C2 13.87 2 26.74 2 40 C-2.95 40 -7.9 40 -13 40 C-13.33 28.12 -13.66 16.24 -14 4 C-13.34 3.67 -12.68 3.34 -12 3 C-10.49393485 6.01213029 -10.87839669 9.11282622 -10.90234375 12.4140625 C-10.90446617 13.50852188 -10.90446617 13.50852188 -10.90663147 14.62509155 C-10.91223469 16.95843585 -10.92478765 19.29168464 -10.9375 21.625 C-10.94251459 23.20572778 -10.94707757 24.78645707 -10.95117188 26.3671875 C-10.96220516 30.24482854 -10.97947189 34.12239807 -11 38 C-7.7 38 -4.4 38 -1 38 C-1.00523682 36.91992676 -1.01047363 35.83985352 -1.01586914 34.72705078 C-1.03394108 30.72771022 -1.04544007 26.72837328 -1.05493164 22.72900391 C-1.05996682 20.99657586 -1.06679532 19.26415208 -1.07543945 17.53173828 C-1.08754065 15.04458567 -1.09323638 12.55748913 -1.09765625 10.0703125 C-1.10281754 9.29317902 -1.10797882 8.51604553 -1.11329651 7.71536255 C-1.11387171 2.22774341 -1.11387171 2.22774341 0 0 Z " fill="#0D0C09" transform="translate(447,118)"/>
<path d="M0 0 C1.32 0.33 2.64 0.66 4 1 C3.34 1 2.68 1 2 1 C0.99201324 5.22170972 0.80336979 9.35287568 0.71875 13.671875 C0.70034058 14.39489807 0.68193115 15.11792114 0.66296387 15.862854 C0.58457368 18.94179095 0.51620838 22.02092598 0.44775391 25.10009766 C0.39618984 27.35330544 0.33892203 29.60631663 0.28125 31.859375 C0.26767456 32.56036316 0.25409912 33.26135132 0.2401123 33.98358154 C0.11291578 38.88708422 0.11291578 38.88708422 -1 40 C-5.62 40 -10.24 40 -15 40 C-15 29.11 -15 18.22 -15 7 C-14.34 7 -13.68 7 -13 7 C-13 17.23 -13 27.46 -13 38 C-9.7 38 -6.4 38 -3 38 C-3.01571045 37.0620459 -3.0314209 36.1240918 -3.04760742 35.15771484 C-3.09891965 31.65765795 -3.13643872 28.1580043 -3.16479492 24.65771484 C-3.17982543 23.14658273 -3.20025564 21.63549382 -3.22631836 20.12451172 C-3.26295689 17.94487813 -3.27978338 15.76582425 -3.29296875 13.5859375 C-3.3086792 12.2767334 -3.32438965 10.9675293 -3.34057617 9.61865234 C-2.9765967 5.75133789 -1.95141584 3.32663507 0 0 Z " fill="#121111" transform="translate(414,118)"/>
<path d="M0 0 C0.33 0 0.66 0 1 0 C1 4.95 1 9.9 1 15 C-2.63 15 -6.26 15 -10 15 C-10 17.97 -10 20.94 -10 24 C-8.82630859 23.98259766 -8.82630859 23.98259766 -7.62890625 23.96484375 C-6.61699219 23.95582031 -5.60507812 23.94679688 -4.5625 23.9375 C-3.55316406 23.92589844 -2.54382813 23.91429688 -1.50390625 23.90234375 C1 24 1 24 2 25 C2.14765101 27.4838096 2.23495911 29.94340663 2.28125 32.4296875 C2.29965942 33.17582306 2.31806885 33.92195862 2.33703613 34.69070435 C2.39595946 37.08538711 2.44867821 39.48014297 2.5 41.875 C2.56766076 45.01837997 2.64139723 48.16153286 2.71875 51.3046875 C2.73232544 52.02977509 2.74590088 52.75486267 2.7598877 53.50192261 C2.83599347 56.58507745 3.01779341 59.05338022 4 62 C4.825 62.33 5.65 62.66 6.5 63 C7.325 63.33 8.15 63.66 9 64 C9.33 64.99 9.66 65.98 10 67 C5.55955487 65.64319732 3.54835485 63.86646942 1 60 C-0.75211672 55.62009669 -1.2384538 51.99146429 -1.1953125 47.2890625 C-1.18886719 46.04511719 -1.18242188 44.80117187 -1.17578125 43.51953125 C-1.15902344 42.23433594 -1.14226563 40.94914062 -1.125 39.625 C-1.11597656 38.31660156 -1.10695313 37.00820312 -1.09765625 35.66015625 C-1.07415085 32.4399163 -1.04129087 29.22005293 -1 26 C-4.3 26 -7.6 26 -11 26 C-11.02685938 23.85423363 -11.04633088 21.70837355 -11.0625 19.5625 C-11.07410156 18.36753906 -11.08570313 17.17257813 -11.09765625 15.94140625 C-11 13 -11 13 -10 12 C-2.47761194 11.76119403 -2.47761194 11.76119403 0 13 C0 8.71 0 4.42 0 0 Z " fill="#252423" transform="translate(584,91)"/>
<path d="M0 0 C2.64 0 5.28 0 8 0 C8 17.82 8 35.64 8 54 C3.05 54 -1.9 54 -7 54 C-4 52 -4 52 5 52 C5 35.5 5 19 5 2 C3.35 2 1.7 2 0 2 C0 1.34 0 0.68 0 0 Z " fill="#2C2C2A" transform="translate(504,104)"/>
<path d="M0 0 C0.66 0 1.32 0 2 0 C2 9.24 2 18.48 2 28 C-0.64 26.35 -3.28 24.7 -6 23 C-14.08784456 20.30405181 -22.21252623 22.1620486 -30 25 C-30 25.66 -30 26.32 -30 27 C-31.18034977 28.14662549 -32.36248446 29.29148521 -33.5546875 30.42578125 C-36.17999744 33.28524046 -38.0515329 36.6585862 -40 40 C-40.33 39.34 -40.66 38.68 -41 38 C-38.56998414 30.70995243 -33.71859502 24.16128144 -26.875 20.625 C-20.75628509 17.79908749 -14.25144548 16.83727246 -7.671875 18.63671875 C-2.43091168 20.56908832 -2.43091168 20.56908832 -1 22 C-0.67 14.74 -0.34 7.48 0 0 Z " fill="#1D1C1B" transform="translate(916,84)"/>
<path d="M0 0 C3.6578218 2.03993908 5.66946174 3.50419262 8 7 C8 7.99 8 8.98 8 10 C7.34 10 6.68 10 6 10 C5.54625 9.030625 5.0925 8.06125 4.625 7.0625 C3.34213779 3.92920418 3.34213779 3.92920418 1 3 C-4.85415468 2.61455462 -4.85415468 2.61455462 -10 5 C-12.54310419 8.71056269 -12.34682907 12.710993 -12.4140625 17.046875 C-12.43342865 17.81807678 -12.4527948 18.58927856 -12.4727478 19.3838501 C-12.53237077 21.83912205 -12.57885914 24.29444133 -12.625 26.75 C-12.66319575 28.41798882 -12.70224841 30.08595826 -12.7421875 31.75390625 C-12.83805791 35.83577943 -12.92215235 39.91774493 -13 44 C-16.96 44 -20.92 44 -25 44 C-25 43.34 -25 42.68 -25 42 C-22.03 42 -19.06 42 -16 42 C-16.02094727 41.03175293 -16.04189453 40.06350586 -16.06347656 39.06591797 C-16.13618512 35.45425355 -16.18191056 31.84265309 -16.21972656 28.23046875 C-16.23977222 26.67078756 -16.26701657 25.11118087 -16.30175781 23.55175781 C-16.35059126 21.30254686 -16.37303815 19.0543341 -16.390625 16.8046875 C-16.41127014 16.1138205 -16.43191528 15.42295349 -16.45318604 14.71115112 C-16.45549117 9.67372994 -15.1691377 6.86629055 -12 3 C-7.94891762 0.35798975 -4.8162435 -0.70236884 0 0 Z " fill="#131312" transform="translate(392,114)"/>
<path d="M0 0 C0.66 0.33 1.32 0.66 2 1 C1.25 7.625 1.25 7.625 -1 11 C-1.66 11 -2.32 11 -3 11 C-2.67 8.36 -2.34 5.72 -2 3 C-9.05506869 2.48896887 -13.11501449 3.03664241 -19 7 C-19.99 7.33 -20.98 7.66 -22 8 C-22 6.35 -22 4.7 -22 3 C-25.3 3 -28.6 3 -32 3 C-32 12.9 -32 22.8 -32 33 C-32.33 33 -32.66 33 -33 33 C-33 22.11 -33 11.22 -33 0 C-21 0 -21 0 -18 2 C-16.31153156 1.27164106 -14.62540863 0.53600305 -12.96484375 -0.25390625 C-8.63313662 -1.89874932 -4.35926077 -1.45308692 0 0 Z " fill="#191919" transform="translate(872,103)"/>
<path d="M0 0 C1.2375 0.7425 1.2375 0.7425 2.5 1.5 C2.5 2.16 2.5 2.82 2.5 3.5 C1.860625 3.17 1.22125 2.84 0.5625 2.5 C-4.91464222 0.7115454 -9.58406753 0.64847446 -14.875 3 C-18.69022549 6.63354809 -20.41202294 10.31523039 -20.55859375 15.62109375 C-20.18041938 19.87756698 -19.15355445 23.15848699 -16.5 26.5 C-14.43299345 27.82793606 -14.43299345 27.82793606 -12.5 28.5 C-12.5 29.49 -12.5 30.48 -12.5 31.5 C-17.53372844 30.06179187 -19.48955889 27.59754485 -22.5 23.5 C-24.31205684 18.06382947 -24.2099836 12.51784814 -22.3125 7.125 C-20.31676484 4.23462494 -18.3947937 2.47693228 -15.5 0.5 C-14.901875 0.0875 -14.30375 -0.325 -13.6875 -0.75 C-8.73696118 -2.4473276 -4.67557978 -2.0038199 0 0 Z " fill="#171716" transform="translate(806.5,115.5)"/>
<path d="M0 0 C0.66 0 1.32 0 2 0 C1.67 1.65 1.34 3.3 1 5 C0.16855469 4.98839844 -0.66289063 4.97679688 -1.51953125 4.96484375 C-3.14955078 4.95130859 -3.14955078 4.95130859 -4.8125 4.9375 C-6.43091797 4.92009766 -6.43091797 4.92009766 -8.08203125 4.90234375 C-11.06512169 4.86375234 -11.06512169 4.86375234 -14 6 C-15.59342164 9.72167366 -15.2268044 14.052992 -15.31640625 18.046875 C-15.33718735 18.81807678 -15.35796844 19.58927856 -15.37937927 20.3838501 C-15.44458572 22.83914572 -15.50362484 25.29454521 -15.5625 27.75 C-15.60571274 29.41797935 -15.6493279 31.08594832 -15.69335938 32.75390625 C-15.80023736 36.83583196 -15.90158566 40.91786182 -16 45 C-16.99 44.67 -17.98 44.34 -19 44 C-19.07447267 39.41019186 -19.12875322 34.82073986 -19.16479492 30.23046875 C-19.17982869 28.67083606 -19.20026135 27.11124528 -19.22631836 25.55175781 C-19.26294211 23.30262884 -19.27978021 21.05406153 -19.29296875 18.8046875 C-19.30845261 18.1138205 -19.32393646 17.42295349 -19.33988953 16.71115112 C-19.34148336 12.06714126 -18.46164385 8.93293344 -16 5 C-11.16558931 1.54684951 -6.69969959 1.65801802 -1 2 C-0.67 1.34 -0.34 0.68 0 0 Z " fill="#0F0F0F" transform="translate(714,112)"/>
<path d="M0 0 C8.74330628 0.82866926 16.64148801 3.64148801 23 10 C23.04063832 11.66617115 23.042721 13.33388095 23 15 C22.34 15 21.68 15 21 15 C20.67 15.99 20.34 16.98 20 18 C18.15234375 19.82421875 18.15234375 19.82421875 15.9375 21.6875 C14.83728516 22.62142578 14.83728516 22.62142578 13.71484375 23.57421875 C13.14894531 24.04472656 12.58304688 24.51523438 12 25 C11.67 24.01 11.34 23.02 11 22 C11.66 22 12.32 22 13 22 C13.66 20.02 14.32 18.04 15 16 C15.66 16 16.32 16 17 16 C16.67 13.36 16.34 10.72 16 8 C15.47921875 7.88785156 14.9584375 7.77570313 14.421875 7.66015625 C11.27142197 6.80140373 8.29170481 5.62376488 5.25 4.4375 C4.07953125 3.98246094 2.9090625 3.52742188 1.703125 3.05859375 C0.81109375 2.70925781 -0.0809375 2.35992187 -1 2 C-0.67 1.34 -0.34 0.68 0 0 Z " fill="#E50A15" transform="translate(165,57)"/>
<path d="M0 0 C0.66 0.33 1.32 0.66 2 1 C3.03876383 4.11629149 3.13361625 6.3594429 3.125 9.625 C3.12886719 11.09839844 3.12886719 11.09839844 3.1328125 12.6015625 C3 15 3 15 2 16 C-0.8116338 16.08861992 -3.59858255 16.11522355 -6.41015625 16.09765625 C-7.25219101 16.0962413 -8.09422577 16.09482635 -8.96177673 16.09336853 C-11.66205335 16.08775263 -14.36224828 16.07519748 -17.0625 16.0625 C-18.88867068 16.05748705 -20.71484266 16.05292379 -22.54101562 16.04882812 C-27.02737542 16.03777804 -31.51367384 16.02050279 -36 16 C-35.67 15.34 -35.34 14.68 -35 14 C-23.45 14 -11.9 14 0 14 C0 9.38 0 4.76 0 0 Z " fill="#292928" transform="translate(672,121)"/>
<path d="M0 0 C1.51953125 1.609375 1.51953125 1.609375 2.8125 3.75 C3.25207031 4.44609375 3.69164062 5.1421875 4.14453125 5.859375 C5 8 5 8 4.90625 10.09765625 C3.66591995 12.7012801 2.22658902 13.37016576 -0.3125 14.6875 C-1.09238281 15.10386719 -1.87226562 15.52023438 -2.67578125 15.94921875 C-7.49945257 18.13000461 -12.02008315 18.12256088 -17.25 18.0625 C-17.99507812 18.05798828 -18.74015625 18.05347656 -19.5078125 18.04882812 C-21.3385764 18.03709246 -23.16929873 18.0191585 -25 18 C-25 17.34 -25 16.68 -25 16 C-23.865625 15.97421875 -22.73125 15.9484375 -21.5625 15.921875 C-10.23843851 15.5508692 -10.23843851 15.5508692 0 11 C0.66 11 1.32 11 2 11 C0.68 8.36 -0.64 5.72 -2 3 C-2.763125 3.515625 -3.52625 4.03125 -4.3125 4.5625 C-5.199375 5.036875 -6.08625 5.51125 -7 6 C-7.99 5.67 -8.98 5.34 -10 5 C-6.74272688 1.58761863 -4.94076175 0 0 0 Z " fill="#1D1C1A" transform="translate(667,141)"/>
<path d="M0 0 C2 2 2 2 2.22705078 5.25634766 C2.22673382 6.64229295 2.21541759 8.02826301 2.1953125 9.4140625 C2.1924826 10.14370209 2.18965271 10.87334167 2.18673706 11.62509155 C2.17553002 13.95856028 2.1504251 16.29164703 2.125 18.625 C2.11497085 20.20572363 2.10584489 21.78645327 2.09765625 23.3671875 C2.07558905 27.24493914 2.04105615 31.12240478 2 35 C7.94 34.505 7.94 34.505 14 34 C14.33 34.99 14.66 35.98 15 37 C10.05 37 5.1 37 0 37 C-0.16723554 31.89154206 -0.32783286 26.78293596 -0.48217773 21.67407227 C-0.53567262 19.93475677 -0.59100755 18.19549688 -0.64819336 16.45629883 C-0.72989627 13.96187334 -0.80506164 11.46732517 -0.87890625 8.97265625 C-0.90594131 8.19036148 -0.93297638 7.40806671 -0.96083069 6.60206604 C-1.01288386 4.73539067 -1.01187025 2.86736326 -1 1 C-0.67 0.67 -0.34 0.34 0 0 Z " fill="#1B1B19" transform="translate(434,121)"/>
<path d="M0 0 C0 0.66 0 1.32 0 2 C-0.54269531 2.26554687 -1.08539062 2.53109375 -1.64453125 2.8046875 C-2.35996094 3.15789062 -3.07539062 3.51109375 -3.8125 3.875 C-4.52019531 4.22304687 -5.22789062 4.57109375 -5.95703125 4.9296875 C-9.60128008 6.83891155 -11.37623676 8.25285407 -13 12 C-13.66 12 -14.32 12 -15 12 C-16.98911307 17.77156038 -17.2451155 22.86242741 -17.125 28.9375 C-17.11146484 30.24944336 -17.11146484 30.24944336 -17.09765625 31.58789062 C-17.0742957 33.72538064 -17.03843247 35.86272786 -17 38 C-17.66 38 -18.32 38 -19 38 C-21.56977154 29.51766469 -20.87207652 20.00941261 -17.125 12.046875 C-13.46474688 5.3872478 -7.86825827 0 0 0 Z " fill="#1D1E1D" transform="translate(791,104)"/>
<path d="M0 0 C0.61875 0.598125 1.2375 1.19625 1.875 1.8125 C1.36896008 3.98124252 0.87516187 5.81217627 -0.125 7.8125 C-1.115 7.4825 -2.105 7.1525 -3.125 6.8125 C-2.795 5.4925 -2.465 4.1725 -2.125 2.8125 C-6.58922194 -0.0396418 -9.94905126 -1.32519658 -15.234375 -1.28515625 C-16.36552734 -1.28032227 -16.36552734 -1.28032227 -17.51953125 -1.27539062 C-18.29683594 -1.26701172 -19.07414063 -1.25863281 -19.875 -1.25 C-20.66777344 -1.24548828 -21.46054687 -1.24097656 -22.27734375 -1.23632812 C-24.22659508 -1.22458565 -26.17580738 -1.20665146 -28.125 -1.1875 C-28.125 -2.1775 -28.125 -3.1675 -28.125 -4.1875 C-18.60336725 -6.72660207 -8.13726582 -5.69608607 0 0 Z " fill="#222221" transform="translate(766.125,107.1875)"/>
<path d="M0 0 C1.32 0.33 2.64 0.66 4 1 C4 8.92 4 16.84 4 25 C2.68 25.33 1.36 25.66 0 26 C0 17.42 0 8.84 0 0 Z " fill="#F2A527" transform="translate(312,118)"/>
<path d="M0 0 C-3.47368379 2.99565391 -6.68254617 4.92739937 -10.9375 6.625 C-11.93652344 7.02976563 -12.93554688 7.43453125 -13.96484375 7.8515625 C-18.60344096 9.60670739 -22.91482993 11.17407545 -27.875 11.625 C-28.65617188 11.69976562 -29.43734375 11.77453125 -30.2421875 11.8515625 C-31.11230469 11.92503906 -31.11230469 11.92503906 -32 12 C-32.33 11.34 -32.66 10.68 -33 10 C-26.8629756 7.54519024 -20.65903798 5.75321843 -14.26953125 4.0625 C-1.45583163 -0.10156965 -1.45583163 -0.10156965 0 0 Z " fill="#DC1D2C" transform="translate(184,197)"/>
<path d="M0 0 C2 3 2 3 2 6 C2.66 6 3.32 6 4 6 C4.185625 6.70125 4.37125 7.4025 4.5625 8.125 C6.88650411 12.77300821 10.66791938 15.80581389 15.265625 18.16015625 C18.7433128 19.22830322 21.80269723 19.2646417 25.4375 19.25 C26.71496094 19.25515625 27.99242187 19.2603125 29.30859375 19.265625 C32.88550755 19.00823861 35.67316405 18.29576918 39 17 C39 17.66 39 18.32 39 19 C31.97149877 22.92288441 24.19655019 23.31478981 16.40625 21.34375 C8.98277644 18.39469886 3.88642518 13.37642989 0.5 6.1875 C-0.46875 3.91796875 -0.46875 3.91796875 -1 2 C-0.67 1.34 -0.34 0.68 0 0 Z " fill="#201F1F" transform="translate(876,137)"/>
<path d="M0 0 C0.33 0.99 0.66 1.98 1 3 C0.10796875 3.08636719 -0.7840625 3.17273438 -1.703125 3.26171875 C-2.87359375 3.40222656 -4.0440625 3.54273437 -5.25 3.6875 C-6.41015625 3.81511719 -7.5703125 3.94273438 -8.765625 4.07421875 C-12.68996376 5.19748963 -13.698914 6.73309121 -16 10 C-16.66 10 -17.32 10 -18 10 C-18 8.02 -18 6.04 -18 4 C-19.093125 4.061875 -20.18625 4.12375 -21.3125 4.1875 C-25 4 -25 4 -28 1 C-24.37 1 -20.74 1 -17 1 C-16.67 1.99 -16.34 2.98 -16 4 C-15.2575 3.525625 -14.515 3.05125 -13.75 2.5625 C-9.05269371 -0.10642403 -5.39596325 -0.10376852 0 0 Z " fill="#1C1C1B" transform="translate(713,102)"/>
<path d="M0 0 C0.33 0 0.66 0 1 0 C1 16.17 1 32.34 1 49 C-3.62 49 -8.24 49 -13 49 C-13.495 47.515 -13.495 47.515 -14 46 C-14.66 46 -15.32 46 -16 46 C-16 45.34 -16 44.68 -16 44 C-15.34 44 -14.68 44 -14 44 C-14 43.34 -14 42.68 -14 42 C-13.34 42 -12.68 42 -12 42 C-12 43.65 -12 45.3 -12 47 C-6.555 46.505 -6.555 46.505 -1 46 C-0.67 30.82 -0.34 15.64 0 0 Z " fill="#191918" transform="translate(826,109)"/>
<path d="M0 0 C0 0.99 0 1.98 0 3 C-1.23363281 3.02126953 -1.23363281 3.02126953 -2.4921875 3.04296875 C-11.676754 3.43538094 -19.16959979 4.89599977 -25.625 11.8125 C-26.07875 12.534375 -26.5325 13.25625 -27 14 C-27.33 13.34 -27.66 12.68 -28 12 C-24.60380263 6.25258907 -21.16714422 3.24201734 -14.8125 0.75 C-9.83546913 -0.22908804 -5.05402367 -0.1645071 0 0 Z " fill="#1E1E1E" transform="translate(550,102)"/>
<path d="M0 0 C2.63419421 0.47074954 5.26703532 0.9474303 7.8984375 1.43359375 C9.88004002 1.7954733 11.86430204 2.14326102 13.8515625 2.47265625 C14.72554687 2.62605469 15.59953125 2.77945313 16.5 2.9375 C17.69109375 3.13666016 17.69109375 3.13666016 18.90625 3.33984375 C21.36963719 4.11654606 22.44750111 4.94813045 24 7 C24.125 10 24.125 10 23 13 C18.22051659 15.86769004 14.62022252 16.34409526 9 16 C9 15.34 9 14.68 9 14 C9.60328125 13.86722656 10.2065625 13.73445312 10.828125 13.59765625 C11.62734375 13.42105469 12.4265625 13.24445313 13.25 13.0625 C14.03890625 12.88847656 14.8278125 12.71445313 15.640625 12.53515625 C17.76878703 12.052444 19.88532842 11.53836822 22 11 C21.67 9.68 21.34 8.36 21 7 C15.85120159 5.39815161 10.79214549 4.4281997 5.453125 3.66015625 C2.77173452 2.93857187 1.733986 2.12124288 0 0 Z " fill="#22211F" transform="translate(531,133)"/>
<path d="M0 0 C0 0.66 0 1.32 0 2 C-1.98 2.66 -3.96 3.32 -6 4 C-6 4.66 -6 5.32 -6 6 C-6.66 6 -7.32 6 -8 6 C-8.33 6.99 -8.66 7.98 -9 9 C-9.495 9.474375 -9.99 9.94875 -10.5 10.4375 C-12.24185971 12.25193719 -12.57855013 13.55559077 -13 16 C-13.66 16 -14.32 16 -15 16 C-15.33 20.95 -15.66 25.9 -16 31 C-16.66 31 -17.32 31 -18 31 C-18.68965021 20.92344417 -17.0752167 13.34783929 -10.5 5.5 C-7.33662014 1.99152415 -4.83153116 0 0 0 Z " fill="#1A1A19" transform="translate(737,105)"/>
<path d="M0 0 C2.375 0.75 2.375 0.75 3.375 1.75 C3.5 5.25 3.5 5.25 3.375 8.75 C2.375 9.75 2.375 9.75 -0.5625 9.9375 C-3.625 9.75 -3.625 9.75 -5.625 7.75 C-5.99296448 4.87987704 -6.00009409 3.34225382 -4.4375 0.875 C-2.625 -0.25 -2.625 -0.25 0 0 Z " fill="#252422" transform="translate(943.625,150.25)"/>
<path d="M0 0 C6.33673405 0.50693872 10.34404272 2.02710271 14.63671875 6.83203125 C17.68516913 10.69241757 19.79030142 14.16120569 21 19 C20.01 19.33 19.02 19.66 18 20 C17.70867188 19.33613281 17.41734375 18.67226562 17.1171875 17.98828125 C13.08884016 9.31086639 8.95703918 5.40367489 0 2 C0 1.34 0 0.68 0 0 Z " fill="#161616" transform="translate(653,103)"/>
<path d="M0 0 C0.66 0 1.32 0 2 0 C1.82082031 0.845625 1.64164062 1.69125 1.45703125 2.5625 C0.11331255 9.72899974 -0.73573154 14.57921142 3 21 C4.92158773 22.66375444 6.75821525 23.75456403 9 25 C9 25.33 9 25.66 9 26 C7.02 26 5.04 26 3 26 C2.67 25.01 2.34 24.02 2 23 C1.34 22.5875 0.68 22.175 0 21.75 C-2 20 -2 20 -2.75 16.8125 C-2.8325 15.554375 -2.915 14.29625 -3 13 C-3.0515625 12.32066406 -3.103125 11.64132813 -3.15625 10.94140625 C-3.3611372 6.42535091 -2.8728108 3.53576714 0 0 Z " fill="#121211" transform="translate(471,120)"/>
<path d="M0 0 C2.64 0.99 5.28 1.98 8 3 C8.33 2.01 8.66 1.02 9 0 C12.96 0 16.92 0 21 0 C21 0.99 21 1.98 21 3 C17.04 3 13.08 3 9 3 C9 4.98 9 6.96 9 9 C8.52949219 8.66226563 8.05898438 8.32453125 7.57421875 7.9765625 C6.95160156 7.53054687 6.32898438 7.08453125 5.6875 6.625 C5.07261719 6.18414062 4.45773437 5.74328125 3.82421875 5.2890625 C2.2347608 4.16589093 0.61937829 3.07958553 -1 2 C-0.67 1.34 -0.34 0.68 0 0 Z " fill="#232322" transform="translate(805,103)"/>
<path d="M0 0 C0.99 0.33 1.98 0.66 3 1 C3 1.66 3 2.32 3 3 C3.99 3.33 4.98 3.66 6 4 C7.99396257 6.66083969 10 9.61242325 10 13 C10.66 13 11.32 13 12 13 C12 14.65 12 16.3 12 18 C6.5260155 15.86727876 4.59086492 10.98360488 2 6 C0.625 2.375 0.625 2.375 0 0 Z " fill="#DC2232" transform="translate(68,160)"/>
<path d="M0 0 C0.66 0 1.32 0 2 0 C2 3.96 2 7.92 2 12 C7.61 12 13.22 12 19 12 C19 12.33 19 12.66 19 13 C12.58869851 15.33138236 6.804359 15.15290694 0 15 C0 10.05 0 5.1 0 0 Z " fill="#202020" transform="translate(595,91)"/>
<path d="M0 0 C1.79244141 0.01740234 1.79244141 0.01740234 3.62109375 0.03515625 C5.41740234 0.04869141 5.41740234 0.04869141 7.25 0.0625 C8.17683594 0.07410156 9.10367188 0.08570312 10.05859375 0.09765625 C10.05859375 1.08765625 10.05859375 2.07765625 10.05859375 3.09765625 C6.42859375 3.09765625 2.79859375 3.09765625 -0.94140625 3.09765625 C-0.94140625 7.71765625 -0.94140625 12.33765625 -0.94140625 17.09765625 C-1.93140625 16.76765625 -2.92140625 16.43765625 -3.94140625 16.09765625 C-3.9682572 13.61841824 -3.98817172 11.13946785 -4.00390625 8.66015625 C-4.01647461 7.59958008 -4.01647461 7.59958008 -4.02929688 6.51757812 C-4.03794213 4.71072066 -3.99360636 2.90378022 -3.94140625 1.09765625 C-2.94140625 0.09765625 -2.94140625 0.09765625 0 0 Z " fill="#0D0D0B" transform="translate(586.94140625,87.90234375)"/>
<path d="M0 0 C3.37498158 -0.02922646 6.74993021 -0.04687468 10.125 -0.0625 C11.55199219 -0.07506836 11.55199219 -0.07506836 13.0078125 -0.08789062 C17.79018487 -0.10449608 22.29771569 -0.00537055 27 1 C24.0711738 2.67006115 21.95688029 3.2555038 18.59375 3.265625 C17.35431641 3.26949219 17.35431641 3.26949219 16.08984375 3.2734375 C15.23519531 3.26570312 14.38054687 3.25796875 13.5 3.25 C12.21802734 3.26160156 12.21802734 3.26160156 10.91015625 3.2734375 C10.08386719 3.27085937 9.25757813 3.26828125 8.40625 3.265625 C7.65666016 3.26336914 6.90707031 3.26111328 6.13476562 3.25878906 C3.73057686 2.96733891 2.09142072 2.19255983 0 1 C0 0.67 0 0.34 0 0 Z " fill="#E7A737" transform="translate(222,207)"/>
<path d="M0 0 C0.66 0 1.32 0 2 0 C2 0.99 2 1.98 2 3 C5.62564187 2.89045592 9.25021431 2.7597504 12.875 2.625 C14.42380859 2.57859375 14.42380859 2.57859375 16.00390625 2.53125 C17.48310547 2.47324219 17.48310547 2.47324219 18.9921875 2.4140625 C20.35899658 2.36693115 20.35899658 2.36693115 21.75341797 2.31884766 C24.19931186 2.20117489 24.19931186 2.20117489 26 0 C26.33 1.65 26.66 3.3 27 5 C17.76 5 8.52 5 -1 5 C-0.67 3.35 -0.34 1.7 0 0 Z " fill="#1B1B1B" transform="translate(635,122)"/>
<path d="M0 0 C3.3 0.33 6.6 0.66 10 1 C10.38218767 2.65614657 10.71395102 4.32457024 11 6 C10 7 10 7 6.5625 7.25 C5.386875 7.1675 4.21125 7.085 3 7 C2.34 6.01 1.68 5.02 1 4 C0.01 4.99 -0.98 5.98 -2 7 C-2.33 5.68 -2.66 4.36 -3 3 C-2.01 3 -1.02 3 0 3 C0 2.01 0 1.02 0 0 Z " fill="#F7B75B" transform="translate(305,167)"/>
<path d="M0 0 C2 3 2 3 3.6875 6 C7.15278314 10.49550245 10.99121295 11.59824259 16.4375 12.6875 C17.7059375 12.8421875 17.7059375 12.8421875 19 13 C19 13.66 19 14.32 19 15 C13.27089389 15.34374637 8.86922889 15.43059308 4 12 C1.93864755 9.84277069 0.2687357 7.70940288 -1 5 C-0.8125 2.0625 -0.8125 2.0625 0 0 Z " fill="#1A1A19" transform="translate(733,133)"/>
<path d="M0 0 C6.11774896 -0.49940808 9.02495953 0.75099398 14 4 C13.32902328 8.19360449 11.1441606 11.40334352 9 15 C7.35 15 5.7 15 4 15 C4.33 14.34 4.66 13.68 5 13 C5.99 13 6.98 13 8 13 C8 12.34 8 11.68 8 11 C8.66 11 9.32 11 10 11 C10.33 9.02 10.66 7.04 11 5 C7.37 4.01 3.74 3.02 0 2 C0 1.34 0 0.68 0 0 Z " fill="#1A1A19" transform="translate(553,104)"/>
<path d="M0 0 C1.32 0.33 2.64 0.66 4 1 C-3.45120006 6.66291204 -9.06174599 8.31809777 -18.375 8.125 C-19.20644531 8.11597656 -20.03789063 8.10695312 -20.89453125 8.09765625 C-22.92981337 8.0742622 -24.96494564 8.03839725 -27 8 C-27 7.34 -27 6.68 -27 6 C-25.69804688 5.96261719 -24.39609375 5.92523438 -23.0546875 5.88671875 C-21.32809743 5.82103326 -19.60153619 5.75458682 -17.875 5.6875 C-17.0190625 5.66494141 -16.163125 5.64238281 -15.28125 5.61914062 C-10.09577448 5.39975512 -6.5793749 4.66060255 -2 2 C-1.34 2 -0.68 2 0 2 C0 1.34 0 0.68 0 0 Z " fill="#2F2E2D" transform="translate(561,151)"/>
<path d="M0 0 C0.33 0 0.66 0 1 0 C1.02505615 1.01425049 1.0501123 2.02850098 1.07592773 3.07348633 C1.17009645 6.83631027 1.27029405 10.59895369 1.37231445 14.36157227 C1.41562749 15.99011004 1.45730518 17.61869216 1.49731445 19.24731445 C1.55510503 21.58818935 1.61877398 23.92884176 1.68359375 26.26953125 C1.70866249 27.36186821 1.70866249 27.36186821 1.73423767 28.47627258 C1.82467238 31.56166939 2.01723993 34.05171978 3 37 C3.825 37.33 4.65 37.66 5.5 38 C6.325 38.33 7.15 38.66 8 39 C8.33 39.99 8.66 40.98 9 42 C4.57677803 40.64845995 2.48356116 38.90273896 0 35 C-0.98772234 30.61524765 -1.05726143 26.54900923 -0.87890625 22.0703125 C-0.83056641 20.78125 -0.78222656 19.4921875 -0.73242188 18.1640625 C-0.67591408 16.81770275 -0.61927179 15.47134864 -0.5625 14.125 C-0.50920597 12.75522999 -0.45646622 11.3854383 -0.40429688 10.015625 C-0.27497734 6.67682977 -0.14002445 3.33836059 0 0 Z " fill="#0C0C0B" transform="translate(585,116)"/>
<path d="M0 0 C0.99 0.33 1.98 0.66 3 1 C3.495 2.093125 3.99 3.18625 4.5 4.3125 C6.46951417 8.11084876 8.78295997 9.02360624 12.75 10.4375 C14.49258508 10.98262806 16.24066361 11.51163248 18 12 C18 12.66 18 13.32 18 14 C12.72115681 13.54492731 8.43717016 13.12618807 4 10 C1.98391605 6.94456842 0 3.72720409 0 0 Z " fill="#151514" transform="translate(634,135)"/>
<path d="M0 0 C5.51395672 -0.57437049 8.60935988 0.37787203 13.19921875 3.48828125 C15.83457971 5.70061247 17.32842537 8.00509545 19 11 C18.67 11.66 18.34 12.32 18 13 C17.34 13 16.68 13 16 13 C15.6596875 11.576875 15.6596875 11.576875 15.3125 10.125 C14.33596269 6.9161594 14.33596269 6.9161594 11.9375 5.8125 C10.4834375 5.4103125 10.4834375 5.4103125 9 5 C7.39400751 4.46377096 5.7899428 3.92174542 4.1875 3.375 C2.7921508 2.91519488 1.396478 2.45636536 0 2 C0 1.34 0 0.68 0 0 Z " fill="#1C1C1B" transform="translate(549,125)"/>
<path d="M0 0 C0.33 0 0.66 0 1 0 C1 4.95 1 9.9 1 15 C-2.63 15 -6.26 15 -10 15 C-10 18.3 -10 21.6 -10 25 C-10.33 25 -10.66 25 -11 25 C-11.02686553 23.02090602 -11.04633375 21.04171029 -11.0625 19.0625 C-11.07410156 17.96035156 -11.08570313 16.85820313 -11.09765625 15.72265625 C-11 13 -11 13 -10 12 C-2.47761194 11.76119403 -2.47761194 11.76119403 0 13 C0 8.71 0 4.42 0 0 Z " fill="#1E1E1D" transform="translate(584,91)"/>
<path d="M0 0 C6.97048136 0.85849678 13.75362275 1.93401395 19 7 C19 7.99 19 8.98 19 10 C18.01 10 17.02 10 16 10 C16 9.34 16 8.68 16 8 C15.47921875 7.88785156 14.9584375 7.77570313 14.421875 7.66015625 C11.27142197 6.80140373 8.29170481 5.62376488 5.25 4.4375 C4.07953125 3.98246094 2.9090625 3.52742188 1.703125 3.05859375 C0.81109375 2.70925781 -0.0809375 2.35992187 -1 2 C-0.67 1.34 -0.34 0.68 0 0 Z " fill="#D60616" transform="translate(165,57)"/>
<path d="M0 0 C0.66 0 1.32 0 2 0 C3.41263843 6.03581874 2.64924453 10.38664172 0 16 C-2.37814693 19.06857668 -4.13765035 20.44823576 -8 21 C-8 20.01 -8 19.02 -8 18 C-7.05125 17.38125 -6.1025 16.7625 -5.125 16.125 C-1.66613837 13.77297409 -0.88979635 13.00408359 0 9 C0.14182499 5.99128421 0.11800221 3.00905644 0 0 Z " fill="#1B1B19" transform="translate(916,126)"/>
<path d="M0 0 C3.96 0 7.92 0 12 0 C12 0.33 12 0.66 12 1 C10.02 1 8.04 1 6 1 C6 1.66 6 2.32 6 3 C4.35 3 2.7 3 1 3 C1.33 4.98 1.66 6.96 2 9 C1.01 9 0.02 9 -1 9 C-1 8.01 -1 7.02 -1 6 C-1.66 6 -2.32 6 -3 6 C-3 5.01 -3 4.02 -3 3 C-2.34 3 -1.68 3 -1 3 C-0.67 2.01 -0.34 1.02 0 0 Z " fill="#0A0A0A" transform="translate(498,103)"/>
<path d="M0 0 C0 0.66 0 1.32 0 2 C-0.54269531 2.26554687 -1.08539062 2.53109375 -1.64453125 2.8046875 C-2.71767578 3.33449219 -2.71767578 3.33449219 -3.8125 3.875 C-4.52019531 4.22304687 -5.22789062 4.57109375 -5.95703125 4.9296875 C-9.60128008 6.83891155 -11.37623676 8.25285407 -13 12 C-13.99 12 -14.98 12 -16 12 C-13.2438807 5.2349799 -7.35149312 0 0 0 Z " fill="#161615" transform="translate(791,104)"/>
<path d="M0 0 C2 3 2 3 2 7 C1.34 7 0.68 7 0 7 C0 7.99 0 8.98 0 10 C-0.99 10.495 -0.99 10.495 -2 11 C-1.67 12.65 -1.34 14.3 -1 16 C-1.66 16 -2.32 16 -3 16 C-4.55944339 12.88111322 -4.28316275 10.4545855 -4 7 C-2.87302723 4.46062031 -1.52802548 2.33978902 0 0 Z " fill="#DA0B1E" transform="translate(73,91)"/>
<path d="M0 0 C0.33 0 0.66 0 1 0 C1.02698189 1.62490954 1.04638757 3.24994633 1.0625 4.875 C1.07410156 5.77992187 1.08570313 6.68484375 1.09765625 7.6171875 C1 10 1 10 0 12 C-0.15306901 13.81171098 -0.24946661 15.6283794 -0.31640625 17.4453125 C-0.35830078 18.52167969 -0.40019531 19.59804687 -0.44335938 20.70703125 C-0.48267578 21.83496094 -0.52199219 22.96289062 -0.5625 24.125 C-0.60568359 25.26066406 -0.64886719 26.39632812 -0.69335938 27.56640625 C-0.7996604 30.37747768 -0.90169405 33.18863945 -1 36 C-1.33 36 -1.66 36 -2 36 C-2.05845252 31.50005528 -2.09374855 27.00020937 -2.125 22.5 C-2.15013672 20.59734375 -2.15013672 20.59734375 -2.17578125 18.65625 C-2.21007038 12.07273681 -2.01605485 6.28628128 0 0 Z " fill="#FA4B0B" transform="translate(162,109)"/>
<path d="M0 0 C3.125 1.25 3.125 1.25 5 3 C5.8125 5.1875 5.8125 5.1875 6 7 C3 6 3 6 1.6875 4.5 C-0.81378664 2.2766341 -2.6777788 2.18805026 -6 2 C-8.74726307 2.49500236 -11.31315022 3.21247507 -14 4 C-13.67 3.01 -13.34 2.02 -13 1 C-9.07693202 -0.96153399 -4.28690635 -0.34641667 0 0 Z " fill="#272726" transform="translate(654,114)"/>
<path d="M0 0 C0.66 0 1.32 0 2 0 C1.67 1.65 1.34 3.3 1 5 C0.16855469 4.98839844 -0.66289063 4.97679688 -1.51953125 4.96484375 C-3.14955078 4.95130859 -3.14955078 4.95130859 -4.8125 4.9375 C-6.43091797 4.92009766 -6.43091797 4.92009766 -8.08203125 4.90234375 C-11.06512169 4.86375234 -11.06512169 4.86375234 -14 6 C-14.33 6.66 -14.66 7.32 -15 8 C-15.33 7.01 -15.66 6.02 -16 5 C-10.8531808 1.83272665 -6.841744 1.64949536 -1 2 C-0.67 1.34 -0.34 0.68 0 0 Z " fill="#2F2F2D" transform="translate(714,112)"/>
<path d="M0 0 C2.3129482 2.3129482 2.49580975 3.47904875 3.125 6.625 C3.29257812 7.44226563 3.46015625 8.25953125 3.6328125 9.1015625 C3.81457031 10.04128906 3.81457031 10.04128906 4 11 C1.6875 12.5625 1.6875 12.5625 -1 14 C-1.99 13.67 -2.98 13.34 -4 13 C-2.68 12.01 -1.36 11.02 0 10 C-0.185625 8.72125 -0.37125 7.4425 -0.5625 6.125 C-1.125 2.25 -1.125 2.25 0 0 Z " fill="#222120" transform="translate(614,144)"/>
<path d="M0 0 C0 0.66 0 1.32 0 2 C-0.928125 2.144375 -1.85625 2.28875 -2.8125 2.4375 C-6.09317578 3.64580985 -6.09317578 3.64580985 -7.06640625 6.13671875 C-7.80550483 8.41114288 -8.45394826 10.67209519 -9 13 C-9.99 13 -10.98 13 -12 13 C-11.72387317 9.04218214 -11.25946652 7.30043492 -8.625 4.25 C-3.66666667 0 -3.66666667 0 0 0 Z " fill="#232323" transform="translate(899,115)"/>
<path d="M0 0 C1.90845703 0.15275391 1.90845703 0.15275391 3.85546875 0.30859375 C4.83128906 0.39238281 5.80710938 0.47617187 6.8125 0.5625 C6.8125 1.2225 6.8125 1.8825 6.8125 2.5625 C1.2025 2.5625 -4.4075 2.5625 -10.1875 2.5625 C-10.1875 1.9025 -10.1875 1.2425 -10.1875 0.5625 C-6.51762779 -0.66079074 -3.84782178 -0.31771006 0 0 Z " fill="#EA991E" transform="translate(237.1875,52.4375)"/>
<path d="M0 0 C0 0.99 0 1.98 0 3 C-4.76052962 4.97387813 -7.96488101 5.0070238 -13 4 C-12 2 -12 2 -8.75 0.875 C-5.62299365 0.14536518 -3.17377095 -0.19234975 0 0 Z " fill="#D9081A" transform="translate(126,54)"/>
<path d="M0 0 C-0.33 0.66 -0.66 1.32 -1 2 C-6.61 2 -12.22 2 -18 2 C-18 1.34 -18 0.68 -18 0 C-15.75067773 -0.1954625 -13.50049858 -0.38108226 -11.25 -0.5625 C-9.99703125 -0.66691406 -8.7440625 -0.77132812 -7.453125 -0.87890625 C-4.60547636 -0.97876723 -2.65713933 -0.90584295 0 0 Z " fill="#C5000D" transform="translate(151,53)"/>
<path d="M0 0 C1.98 0 3.96 0 6 0 C6 0.66 6 1.32 6 2 C5.01 2.33 4.02 2.66 3 3 C3.33 3.99 3.66 4.98 4 6 C4.99 6.33 5.98 6.66 7 7 C6.01 8.485 6.01 8.485 5 10 C2.12021246 8.56010623 0.78517826 6.64698845 -1 4 C-0.75 1.6875 -0.75 1.6875 0 0 Z " fill="#DC0418" transform="translate(92,185)"/>
<path d="M0 0 C1.32 0.33 2.64 0.66 4 1 C3.34 1 2.68 1 2 1 C0.33318124 7.00054754 -0.51679152 12.7945858 -1 19 C-1.33 19 -1.66 19 -2 19 C-3.70159453 5.18223235 -3.70159453 5.18223235 0 0 Z " fill="#22211F" transform="translate(414,118)"/>
<path d="M0 0 C-0.66 0.66 -1.32 1.32 -2 2 C-2.66 1.67 -3.32 1.34 -4 1 C-9.28910111 0.59746664 -14.21290155 0.44688083 -19 3 C-18 0 -18 0 -15.9375 -1.1875 C-10.31285636 -2.7432525 -5.28787312 -2.64393656 0 0 Z " fill="#2E2E2E" transform="translate(757,116)"/>
<path d="M0 0 C3.73487777 0.4979837 5.81237635 0.87491756 9 3 C9.66 2.67 10.32 2.34 11 2 C11 3.98 11 5.96 11 8 C7.37 6.02 3.74 4.04 0 2 C0 1.34 0 0.68 0 0 Z " fill="#161414" transform="translate(906,103)"/>
<path d="M0 0 C4 4 4 4 5.625 5.6875 C6.98621473 7.11564313 6.98621473 7.11564313 9 8 C9 8.99 9 9.98 9 11 C3.98990293 9.56854369 1.89380576 7.17048478 -1 3 C-0.67 2.01 -0.34 1.02 0 0 Z " fill="#181816" transform="translate(785,136)"/>
<path d="M0 0 C3.37503669 1.1858237 5.64722731 2.27573689 8 5 C7.01 6.485 7.01 6.485 6 8 C4.68 8 3.36 8 2 8 C2 6.35 2 4.7 2 3 C0.35 3 -1.3 3 -3 3 C-2.01 2.01 -1.02 1.02 0 0 Z " fill="#F1A91D" transform="translate(274,61)"/>
<path d="M0 0 C0.99 0.33 1.98 0.66 3 1 C3 1.66 3 2.32 3 3 C3.99 3.33 4.98 3.66 6 4 C7.1875 6.5625 7.1875 6.5625 8 9 C6.68 9.33 5.36 9.66 4 10 C3.32845067 8.71086513 2.66291141 7.41859796 2 6.125 C1.62875 5.40570313 1.2575 4.68640625 0.875 3.9453125 C0 2 0 2 0 0 Z " fill="#E32837" transform="translate(68,160)"/>
<path d="M0 0 C-0.33 0.99 -0.66 1.98 -1 3 C-6.61897168 5.66161816 -10.82711812 6.3306901 -17 6 C-16.67 5.34 -16.34 4.68 -16 4 C-13.6015625 3.4375 -13.6015625 3.4375 -10.625 3 C-6.85233595 2.44256151 -3.46134274 0 0 0 Z " fill="#1D1D1B" transform="translate(765,153)"/>
<path d="M0 0 C0.66 0 1.32 0 2 0 C1.71848084 2.12636813 1.42446737 4.25108528 1.125 6.375 C0.96257812 7.55835937 0.80015625 8.74171875 0.6328125 9.9609375 C0 13 0 13 -2 15 C-3.44203141 6.05245573 -3.44203141 6.05245573 -1.6875 1.875 C-1.130625 1.25625 -0.57375 0.6375 0 0 Z " fill="#2B2B2A" transform="translate(471,120)"/>
<path d="M0 0 C2.475 0.495 2.475 0.495 5 1 C4.25 7.625 4.25 7.625 2 11 C1.34 11 0.68 11 0 11 C0.29296875 9.01432292 0.5859375 7.02864583 0.87890625 5.04296875 C1.13904799 2.7974658 1.13904799 2.7974658 0 0 Z " fill="#171615" transform="translate(869,103)"/>
<path d="M0 0 C1.41750563 0.11509661 2.83401169 0.24253658 4.25 0.375 C5.03890625 0.44460937 5.8278125 0.51421875 6.640625 0.5859375 C9.085877 1.01507113 10.84836903 1.78600638 13 3 C10.46875317 4.5029278 8.79254012 5.2006987 5.88671875 4.46484375 C3.89135862 3.7028501 1.93909378 2.89496636 0 2 C0 1.34 0 0.68 0 0 Z " fill="#F1AA42" transform="translate(208,203)"/>
<path d="M0 0 C0.99 0.33 1.98 0.66 3 1 C2.34 2.32 1.68 3.64 1 5 C0.34 5 -0.32 5 -1 5 C-0.67 7.31 -0.34 9.62 0 12 C-1.32 11.67 -2.64 11.34 -4 11 C-3.48964169 6.6109185 -2.47785723 3.66291938 0 0 Z " fill="#181817" transform="translate(524,142)"/>
<path d="M0 0 C2.9375 1.5 2.9375 1.5 5 3 C4.67 3.99 4.34 4.98 4 6 C3.45859375 5.50886719 2.9171875 5.01773438 2.359375 4.51171875 C-0.57241283 2.6332388 -2.30299691 2.68939275 -5.75 2.8125 C-6.73484375 2.83957031 -7.7196875 2.86664063 -8.734375 2.89453125 C-9.48203125 2.92933594 -10.2296875 2.96414062 -11 3 C-7.19748013 -0.14519149 -4.97629098 -0.5238201 0 0 Z " fill="#111111" transform="translate(428,114)"/>
<path d="M0 0 C4.73101266 2.42616034 4.73101266 2.42616034 5.9375 5 C6 7 6 7 4 10 C3.01 9.67 2.02 9.34 1 9 C1.33 7.68 1.66 6.36 2 5 C1.01 4.34 0.02 3.68 -1 3 C-0.67 2.01 -0.34 1.02 0 0 Z " fill="#141312" transform="translate(762,105)"/>
<path d="M0 0 C0.99 0.33 1.98 0.66 3 1 C3.04241723 3.33294775 3.04092937 5.66702567 3 8 C2 9 2 9 -1.0625 9.0625 C-2.031875 9.041875 -3.00125 9.02125 -4 9 C-3.67 8.34 -3.34 7.68 -3 7 C-2.01 7 -1.02 7 0 7 C0 4.69 0 2.38 0 0 Z " fill="#434240" transform="translate(944,151)"/>
<path d="M0 0 C0.66 0.66 1.32 1.32 2 2 C1.67 2.66 1.34 3.32 1 4 C-3.62 4 -8.24 4 -13 4 C-13 3.34 -13 2.68 -13 2 C-10.47901757 0.73950878 -8.7450692 0.93536531 -5.9375 1 C-4.29210014 1.03777102 -2.64517844 1.04642479 -1 1 C-0.67 0.67 -0.34 0.34 0 0 Z " fill="#383838" transform="translate(870,113)"/>
<path d="M0 0 C0.66 0.66 1.32 1.32 2 2 C-0.24495708 3.12247854 -1.88443155 3.26831921 -4.375 3.5 C-7.3462775 3.77824672 -10.11987066 4.21092347 -13 5 C-13 4.34 -13 3.68 -13 3 C-8.47351478 0.35035011 -5.24601514 -0.50442453 0 0 Z " fill="#333231" transform="translate(487,114)"/>
<path d="M0 0 C6.75 2.875 6.75 2.875 9 4 C9 5.65 9 7.3 9 9 C8.52949219 8.66226563 8.05898438 8.32453125 7.57421875 7.9765625 C6.95160156 7.53054687 6.32898438 7.08453125 5.6875 6.625 C5.07261719 6.18414062 4.45773437 5.74328125 3.82421875 5.2890625 C2.2347608 4.16589093 0.61937829 3.07958553 -1 2 C-0.67 1.34 -0.34 0.68 0 0 Z " fill="#1B1B1A" transform="translate(805,103)"/>
<path d="M0 0 C5.52504039 0.4911147 5.52504039 0.4911147 7.75 2.875 C8.36875 3.926875 8.36875 3.926875 9 5 C9.99 6.485 9.99 6.485 11 8 C7.24026115 8 6.54322371 7.03457593 3.8125 4.5625 C3.09707031 3.92441406 2.38164063 3.28632813 1.64453125 2.62890625 C1.10183594 2.09136719 0.55914062 1.55382812 0 1 C0 0.67 0 0.34 0 0 Z " fill="#E4374A" transform="translate(85,186)"/>
<path d="M0 0 C0.33 0 0.66 0 1 0 C1 3.96 1 7.92 1 12 C0.01 12 -0.98 12 -2 12 C-2 8.7 -2 5.4 -2 2 C-1.34 2 -0.68 2 0 2 C0 1.34 0 0.68 0 0 Z " fill="#2A2929" transform="translate(785,124)"/>
<path d="M0 0 C6.07328688 -0.50610724 9.77228537 0.95842058 15 4 C15 4.99 15 5.98 15 7 C14.34 7 13.68 7 13 7 C13 6.34 13 5.68 13 5 C12.39671875 4.80664062 11.7934375 4.61328125 11.171875 4.4140625 C10.37265625 4.15367188 9.5734375 3.89328125 8.75 3.625 C7.96109375 3.36976562 7.1721875 3.11453125 6.359375 2.8515625 C4.13372042 2.04826333 2.09068328 1.10288338 0 0 Z " fill="#2E2E2D" transform="translate(900,114)"/>
<path d="M0 0 C1.32 0.33 2.64 0.66 4 1 C-0.82624485 4.84129692 -3.83543524 6.62257767 -10 7 C-7.3401439 3.55783328 -4.09711714 3.00495326 0 2 C0 1.34 0 0.68 0 0 Z " fill="#222220" transform="translate(561,151)"/>
<path d="M0 0 C4.42679007 1.47559669 4.91432696 3.90057368 7 8 C7 8.66 7 9.32 7 10 C6.34 10 5.68 10 5 10 C5 9.34 5 8.68 5 8 C4.01 7.67 3.02 7.34 2 7 C0.35179805 4.39757586 0 3.13751221 0 0 Z " fill="#1C1C1B" transform="translate(761,142)"/>
<path d="M0 0 C2 1 2 1 2.65234375 2.765625 C3.03733203 5.2399317 2.89055507 7.27136171 2.5625 9.75 C2.40974609 10.94882813 2.40974609 10.94882813 2.25390625 12.171875 C2.12822266 13.07679688 2.12822266 13.07679688 2 14 C1.34 14 0.68 14 0 14 C0 9.38 0 4.76 0 0 Z " fill="#2B2B28" transform="translate(672,121)"/>
<path d="M0 0 C1.32 0.66 2.64 1.32 4 2 C3.01 2.33 2.02 2.66 1 3 C1 8.94 1 14.88 1 21 C0.67 21 0.34 21 0 21 C-0.19592461 17.68794116 -0.38032746 14.37534146 -0.5625 11.0625 C-0.61857422 10.11697266 -0.67464844 9.17144531 -0.73242188 8.19726562 C-0.78076172 7.29814453 -0.82910156 6.39902344 -0.87890625 5.47265625 C-0.9260376 4.64000244 -0.97316895 3.80734863 -1.02172852 2.94946289 C-1 1 -1 1 0 0 Z " fill="#444444" transform="translate(684,103)"/>
<path d="M0 0 C3.78639125 1.26213042 4.04104596 2.65345351 6 6 C6.99 6.66 7.98 7.32 9 8 C9 8.66 9 9.32 9 10 C9.99 10.33 10.98 10.66 12 11 C11.67 11.66 11.34 12.32 11 13 C6.16716651 9.11995791 2.31417894 5.93008355 0 0 Z " fill="#262625" transform="translate(773,143)"/>
<path d="M0 0 C1.98 0.99 1.98 0.99 4 2 C4 3.98 4 5.96 4 8 C2.68 8.33 1.36 8.66 0 9 C0 6.03 0 3.06 0 0 Z " fill="#E6A642" transform="translate(312,135)"/>
<path d="M0 0 C2.7053871 4.05808065 5 8.04889399 5 13 C4.34 13 3.68 13 3 13 C3 12.01 3 11.02 3 10 C2.34 10 1.68 10 1 10 C1 8.68 1 7.36 1 6 C0.34 6 -0.32 6 -1 6 C-0.67 4.02 -0.34 2.04 0 0 Z " fill="#191918" transform="translate(888,131)"/>
<path d="M0 0 C0.66 0 1.32 0 2 0 C2.33 0.99 2.66 1.98 3 3 C7.29 3.33 11.58 3.66 16 4 C16 4.33 16 4.66 16 5 C10.39 5 4.78 5 -1 5 C-0.67 3.35 -0.34 1.7 0 0 Z " fill="#141414" transform="translate(635,122)"/>
<path d="M0 0 C2.97 0 5.94 0 9 0 C9 0.99 9 1.98 9 3 C6.03 3 3.06 3 0 3 C0 2.01 0 1.02 0 0 Z " fill="#27261C" transform="translate(897,102)"/>
<path d="M0 0 C3.96 0 7.92 0 12 0 C11.34 1.32 10.68 2.64 10 4 C10 3.34 10 2.68 10 2 C6.7 2 3.4 2 0 2 C0 1.34 0 0.68 0 0 Z " fill="#2B2B29" transform="translate(841,104)"/>
<path d="M0 0 C2.97 0 5.94 0 9 0 C9 0.99 9 1.98 9 3 C6.36 3 3.72 3 1 3 C0.67 2.01 0.34 1.02 0 0 Z " fill="#333331" transform="translate(644,102)"/>
<path d="M0 0 C3 2 3 2 3.6875 4.625 C3.790625 5.40875 3.89375 6.1925 4 7 C3.01 7.33 2.02 7.66 1 8 C0.34 7.67 -0.32 7.34 -1 7 C-0.67 4.69 -0.34 2.38 0 0 Z " fill="#EC9D27" transform="translate(307,96)"/>
<path d="M0 0 C0.99 0 1.98 0 3 0 C3 0.66 3 1.32 3 2 C5.475 2.99 5.475 2.99 8 4 C4.52176885 5.15941038 2.54104422 4.70820884 -1 4 C-0.67 2.68 -0.34 1.36 0 0 Z " fill="#F0A143" transform="translate(189,191)"/>
<path d="M0 0 C3 3.75 3 3.75 3 6 C3.804375 6.268125 4.60875 6.53625 5.4375 6.8125 C6.283125 7.204375 7.12875 7.59625 8 8 C8.33 8.99 8.66 9.98 9 11 C4.59810491 9.6549765 2.48951402 7.87257737 0 4 C0 2.68 0 1.36 0 0 Z " fill="#282727" transform="translate(585,147)"/>
<path d="M0 0 C0.66 1.32 1.32 2.64 2 4 C-2.39453125 8.00390625 -2.39453125 8.00390625 -4 9 C-4.99 8.67 -5.98 8.34 -7 8 C-6.21625 7.236875 -5.4325 6.47375 -4.625 5.6875 C-1.92742283 3.09108195 -1.92742283 3.09108195 0 0 Z " fill="#101010" transform="translate(811,138)"/>
<path d="M0 0 C0.66 0 1.32 0 2 0 C1.45463844 3.81753091 -0.19537375 5.45033977 -3 8 C-3.66 8.66 -4.32 9.32 -5 10 C-5.33 9.34 -5.66 8.68 -6 8 C-2.25 2.25 -2.25 2.25 0 0 Z " fill="#252423" transform="translate(528,106)"/>
<path d="M0 0 C2.64 0 5.28 0 8 0 C8 0.99 8 1.98 8 3 C5.36 3 2.72 3 0 3 C0 2.01 0 1.02 0 0 Z " fill="#212120" transform="translate(861,102)"/>
<path d="M0 0 C2.64 0 5.28 0 8 0 C8 0.99 8 1.98 8 3 C5.36 3 2.72 3 0 3 C0 2.01 0 1.02 0 0 Z " fill="#292929" transform="translate(794,102)"/>
<path d="M0 0 C2.97 0 5.94 0 9 0 C7.68 1.32 6.36 2.64 5 4 C2.525 3.01 2.525 3.01 0 2 C0 1.34 0 0.68 0 0 Z " fill="#F1B049" transform="translate(281,189)"/>
<path d="M0 0 C1.32 0.66 2.64 1.32 4 2 C2.68 4.64 1.36 7.28 0 10 C-0.66 8.68 -1.32 7.36 -2 6 C-1.34 5.01 -0.68 4.02 0 3 C0 2.01 0 1.02 0 0 Z " fill="#F3B95C" transform="translate(308,157)"/>
<path d="M0 0 C0.66 0.33 1.32 0.66 2 1 C1.401875 1.886875 0.80375 2.77375 0.1875 3.6875 C-1.61840247 6.42215231 -3.33895911 9.17623048 -5 12 C-5.33 11.34 -5.66 10.68 -6 10 C-5.29296875 8.125 -5.29296875 8.125 -4.1875 6 C-3.83042969 5.29875 -3.47335937 4.5975 -3.10546875 3.875 C-2 2 -2 2 0 0 Z " fill="#333332" transform="translate(881,112)"/>
<path d="M0 0 C0 0.66 0 1.32 0 2 C-1.98 2.66 -3.96 3.32 -6 4 C-6 4.66 -6 5.32 -6 6 C-6.99 6.33 -7.98 6.66 -9 7 C-8.8125 5.1875 -8.8125 5.1875 -8 3 C-5.09303401 0.85802506 -3.64478912 0 0 0 Z " fill="#191918" transform="translate(737,105)"/>
<path d="M0 0 C0 0.66 0 1.32 0 2 C-4.455 3.485 -4.455 3.485 -9 5 C-9 4.01 -9 3.02 -9 2 C-5.62902617 0.50178941 -3.79557881 0 0 0 Z " fill="#181717" transform="translate(539,103)"/>
<path d="M0 0 C0.886875 0.103125 1.77375 0.20625 2.6875 0.3125 C-0.08329887 4.12234844 -3.94118145 4.38090752 -8.3125 5.3125 C-4.12788462 0.38942308 -4.12788462 0.38942308 0 0 Z " fill="#0B0A0A" transform="translate(420.3125,102.6875)"/>
<path d="M0 0 C2.31 0 4.62 0 7 0 C7.33 0.99 7.66 1.98 8 3 C5.36 3 2.72 3 0 3 C0 2.01 0 1.02 0 0 Z " fill="#222221" transform="translate(706,102)"/>
<path d="M0 0 C0 1.32 0 2.64 0 4 C-2.31 4.66 -4.62 5.32 -7 6 C-6.75 4.125 -6.75 4.125 -6 2 C-3.85331506 0.61504198 -2.56128588 0 0 0 Z " fill="#DF010B" transform="translate(109,59)"/>
<path d="M0 0 C0.99 0.33 1.98 0.66 3 1 C3 1.99 3 2.98 3 4 C3.99 4 4.98 4 6 4 C6 4.99 6 5.98 6 7 C4.35 6.67 2.7 6.34 1 6 C0.67 4.02 0.34 2.04 0 0 Z " fill="#30302F" transform="translate(534,118)"/>
<path d="M0 0 C1.5 1.1875 1.5 1.1875 3 3 C3.1875 5.6875 3.1875 5.6875 3 8 C2.01 8.33 1.02 8.66 0 9 C-0.87890625 2.84765625 -0.87890625 2.84765625 -1 1 C-0.67 0.67 -0.34 0.34 0 0 Z " fill="#2B2B2B" transform="translate(376,103)"/>
<path d="M0 0 C1.65 0 3.3 0 5 0 C4.67 1.32 4.34 2.64 4 4 C4.66 4 5.32 4 6 4 C6.33 5.32 6.66 6.64 7 8 C3.70851757 6.86500606 3.0040131 6.00716624 1.25 2.875 C0.8375 1.92625 0.425 0.9775 0 0 Z " fill="#FA4C0D" transform="translate(177,179)"/>
<path d="M0 0 C2.5654594 2.5654594 2.54046087 4.47686668 3 8 C2.01 8 1.02 8 0 8 C0 7.01 0 6.02 0 5 C-0.66 5 -1.32 5 -2 5 C-2 4.01 -2 3.02 -2 2 C-1.34 2 -0.68 2 0 2 C0 1.34 0 0.68 0 0 Z " fill="#131313" transform="translate(497,104)"/>
<path d="M0 0 C0.99 0 1.98 0 3 0 C2.67 2.31 2.34 4.62 2 7 C1.01 7 0.02 7 -1 7 C-1.04254356 5.00045254 -1.04080783 2.99958364 -1 1 C-0.67 0.67 -0.34 0.34 0 0 Z " fill="#2C2C2A" transform="translate(716,104)"/>
<path d="M0 0 C0.81210938 0.29003906 1.62421875 0.58007812 2.4609375 0.87890625 C3.27820313 1.16636719 4.09546875 1.45382813 4.9375 1.75 C5.56398437 1.97816406 6.19046875 2.20632812 6.8359375 2.44140625 C3.8359375 3.44140625 3.8359375 3.44140625 1.3984375 2.94140625 C-1.23240501 2.42807113 -2.65730277 2.60581967 -5.1640625 3.44140625 C-4.8340625 2.45140625 -4.5040625 1.46140625 -4.1640625 0.44140625 C-2.1640625 -0.55859375 -2.1640625 -0.55859375 0 0 Z " fill="#F00911" transform="translate(166.1640625,55.55859375)"/>
<path d="M0 0 C2.4375 0.375 2.4375 0.375 5 1 C5.33 1.66 5.66 2.32 6 3 C3.69 3.33 1.38 3.66 -1 4 C-0.67 2.68 -0.34 1.36 0 0 Z " fill="#EA9B17" transform="translate(212,55)"/>
<path d="M0 0 C2.64 0 5.28 0 8 0 C5.6875 2.0625 5.6875 2.0625 3 4 C2.01 3.67 1.02 3.34 0 3 C0 2.01 0 1.02 0 0 Z " fill="#EEB457" transform="translate(272,197)"/>
<path d="M0 0 C2 0 2 0 4.5 2.25 C6.56954228 4.5264965 7.85749293 6.19566446 9 9 C4.71930097 7.41455592 2.70478088 4.5312417 0 1 C0 0.67 0 0.34 0 0 Z " fill="#232322" transform="translate(625,145)"/>
<path d="M0 0 C5.26053037 -0.31563182 8.44573816 0.33409063 13 3 C13 3.66 13 4.32 13 5 C12.34 4.71125 11.68 4.4225 11 4.125 C7.37500535 2.76562701 3.76653307 1.89375361 0 1 C0 0.67 0 0.34 0 0 Z " fill="#2C2C2C" transform="translate(796,114)"/>
<path d="M0 0 C2.0625 1.75 2.0625 1.75 4 4 C3.75 6.25 3.75 6.25 3 8 C2.34 8 1.68 8 1 8 C1 6.68 1 5.36 1 4 C0.34 4 -0.32 4 -1 4 C-1.33 3.01 -1.66 2.02 -2 1 C-1.34 0.67 -0.68 0.34 0 0 Z " fill="#EE9E2E" transform="translate(303,89)"/>
<path d="M0 0 C0.5534764 2.07553648 1 3.84365964 1 6 C-0.65 6.66 -2.3 7.32 -4 8 C-3.50168276 4.31245243 -2.89932357 2.39509338 0 0 Z " fill="#DA010C" transform="translate(85,75)"/>
<path d="M0 0 C1.32 0.33 2.64 0.66 4 1 C2.35 2.65 0.7 4.3 -1 6 C-1.66 5.34 -2.32 4.68 -3 4 C-2.01 2.68 -1.02 1.36 0 0 Z " fill="#F29B26" transform="translate(293,181)"/>
<path d="M0 0 C0.66 0.33 1.32 0.66 2 1 C1.34 2.98 0.68 4.96 0 7 C-1.32 6.67 -2.64 6.34 -4 6 C-4 5.34 -4 4.68 -4 4 C-3.34 3.67 -2.68 3.34 -2 3 C-2 2.34 -2 1.68 -2 1 C-1.34 0.67 -0.68 0.34 0 0 Z " fill="#EEAB35" transform="translate(312,151)"/>
<path d="M0 0 C-0.33 0.66 -0.66 1.32 -1 2 C-3.06640625 2.6328125 -3.06640625 2.6328125 -5.5625 3.125 C-6.80193359 3.37636719 -6.80193359 3.37636719 -8.06640625 3.6328125 C-8.70449219 3.75398438 -9.34257813 3.87515625 -10 4 C-9.67 3.01 -9.34 2.02 -9 1 C-6.04335481 -0.4783226 -3.25770263 -0.06032783 0 0 Z " fill="#474744" transform="translate(650,114)"/>
<path d="M0 0 C3.3 0.33 6.6 0.66 10 1 C9.67 1.66 9.34 2.32 9 3 C2.84765625 2.4140625 2.84765625 2.4140625 1 2 C0.67 1.34 0.34 0.68 0 0 Z " fill="#F8C46D" transform="translate(222,207)"/>
<path d="M0 0 C-2.68841859 2.25245881 -4.64641875 3.88213958 -8 5 C-8.33 4.34 -8.66 3.68 -9 3 C-6.38997624 -0.48003168 -4.1689578 -0.27793052 0 0 Z " fill="#E84348" transform="translate(184,197)"/>
<path d="M0 0 C2 2 2 2 3 5 C3.66 5 4.32 5 5 5 C5 6.32 5 7.64 5 9 C4.34 9 3.68 9 3 9 C3 8.34 3 7.68 3 7 C1.68 6.34 0.36 5.68 -1 5 C-0.67 3.35 -0.34 1.7 0 0 Z " fill="#DD0216" transform="translate(80,173)"/>
<path d="M0 0 C0.66 0 1.32 0 2 0 C1.34 2.97 0.68 5.94 0 9 C-2 6 -2 6 -1.6875 3.375 C-1 1 -1 1 0 0 Z " fill="#232323" transform="translate(734,121)"/>
<path d="M0 0 C0.33 0.99 0.66 1.98 1 3 C-0.4375 5.6875 -0.4375 5.6875 -2 8 C-2.99 7.67 -3.98 7.34 -5 7 C-3.47793991 4.37098712 -2.15634036 2.15634036 0 0 Z " fill="#282827" transform="translate(856,115)"/>
<path d="M0 0 C0.8353125 0.37125 0.8353125 0.37125 1.6875 0.75 C1.3575 1.41 1.0275 2.07 0.6875 2.75 C-1.96110427 3.34355614 -4.60447322 3.49209269 -7.3125 3.75 C-2.88173077 -0.31153846 -2.88173077 -0.31153846 0 0 Z " fill="#121110" transform="translate(704.3125,103.25)"/>
<path d="M0 0 C1.32 0 2.64 0 4 0 C4 0.66 4 1.32 4 2 C4.66 2.33 5.32 2.66 6 3 C4.35 3.66 2.7 4.32 1 5 C0.67 3.35 0.34 1.7 0 0 Z " fill="#E98A13" transform="translate(289,74)"/>
<path d="M0 0 C2.5654594 2.5654594 2.54046087 4.47686668 3 8 C2.01 7.67 1.02 7.34 0 7 C-1.125 2.25 -1.125 2.25 0 0 Z " fill="#151413" transform="translate(614,144)"/>
<path d="M0 0 C0 0.66 0 1.32 0 2 C-1.98 2.66 -3.96 3.32 -6 4 C-6 3.34 -6 2.68 -6 2 C-6.99 1.67 -7.98 1.34 -9 1 C-5.846632 0.29925156 -3.27275026 0 0 0 Z " fill="#111110" transform="translate(612,144)"/>
<path d="M0 0 C0.66 0 1.32 0 2 0 C1.125 5.75 1.125 5.75 0 8 C-0.99 7.67 -1.98 7.34 -3 7 C-2.01 4.69 -1.02 2.38 0 0 Z " fill="#222222" transform="translate(497,134)"/>
<path d="M0 0 C0.66 0.33 1.32 0.66 2 1 C2 2.65 2 4.3 2 6 C1.34 6 0.68 6 0 6 C0 7.65 0 9.3 0 11 C-0.33 11 -0.66 11 -1 11 C-1.125 3.375 -1.125 3.375 0 0 Z " fill="#2E2E2D" transform="translate(624,117)"/>
<path d="M0 0 C0.66 0.66 1.32 1.32 2 2 C0.8125 4 0.8125 4 -1 6 C-3.6875 6.25 -3.6875 6.25 -6 6 C-5.67 5.34 -5.34 4.68 -5 4 C-4.01 4 -3.02 4 -2 4 C-2 3.34 -2 2.68 -2 2 C-1.34 2 -0.68 2 0 2 C0 1.34 0 0.68 0 0 Z " fill="#363636" transform="translate(563,113)"/>
<path d="M0 0 C0.66 0 1.32 0 2 0 C2 1.98 2 3.96 2 6 C1.01 6.495 1.01 6.495 0 7 C-0.66 5.35 -1.32 3.7 -2 2 C-1.34 1.34 -0.68 0.68 0 0 Z " fill="#363635" transform="translate(916,151)"/>
<path d="M0 0 C0 0.99 0 1.98 0 3 C-1.65 3.66 -3.3 4.32 -5 5 C-5 4.01 -5 3.02 -5 2 C-3.35 1.34 -1.7 0.68 0 0 Z " fill="#161616" transform="translate(759,142)"/>
<path d="M0 0 C0.598125 0.20625 1.19625 0.4125 1.8125 0.625 C0.42054085 3.4089183 -1.34325779 3.60398997 -4.1875 4.625 C-4.5175 3.635 -4.8475 2.645 -5.1875 1.625 C-2.1875 -0.375 -2.1875 -0.375 0 0 Z " fill="#141413" transform="translate(859.1875,103.375)"/>
<path d="M0 0 C0.66 0 1.32 0 2 0 C2.33 1.32 2.66 2.64 3 4 C2.34 4 1.68 4 1 4 C1 4.66 1 5.32 1 6 C0.34 6 -0.32 6 -1 6 C-1.33 5.01 -1.66 4.02 -2 3 C-1.34 2.01 -0.68 1.02 0 0 Z " fill="#D80615" transform="translate(78,83)"/>
<path d="M0 0 C2.0625 0.4375 2.0625 0.4375 4 1 C3.01 2.485 3.01 2.485 2 4 C1.01 4 0.02 4 -1 4 C-1.33 4.66 -1.66 5.32 -2 6 C-1.125 1.125 -1.125 1.125 0 0 Z " fill="#D6010D" transform="translate(89,71)"/>
<path d="M0 0 C0 0.66 0 1.32 0 2 C0.99 2.66 1.98 3.32 3 4 C0.69 4 -1.62 4 -4 4 C-4.33 3.01 -4.66 2.02 -5 1 C-2 0 -2 0 0 0 Z " fill="#F1B63D" transform="translate(221,53)"/>
</svg>