<svg version="1.1" id="Layer_1" xmlns:x="ns_extend;" xmlns:i="ns_ai;" xmlns:graph="ns_graphs;" xmlns="http://www.w3.org/2000/svg" xmlns:xlink="http://www.w3.org/1999/xlink" x="0px" y="0px" viewBox="0 0 804.1 90" style="enable-background:new 0 0 804.1 90;" xml:space="preserve">
 <style type="text/css">
  .st0{fill-rule:evenodd;clip-rule:evenodd;fill:#2DB035;}
 </style>
 <metadata>
  <sfw xmlns="ns_sfw;">
   <slices>
   </slices>
   <sliceSourceBounds bottomLeftOrigin="true" height="90" width="804.1" x="-266.6" y="-20.5">
   </sliceSourceBounds>
  </sfw>
 </metadata>
 <g id="Group-28">
  <g id="Group-11" transform="translate(47.384 7.483)">
   <path id="Fill-1" class="st0" d="M118.8,62V36.3C140.3,34.6,140.3,64.1,118.8,62 M150.2,25.6c-8.1-7.8-18.8-10.1-32.5-10.4
			c0,0-18.5,0.3-23.3,0.3v66.9c14.9,0,35.8,1.2,46.3-3C159.7,71.3,166.6,41.4,150.2,25.6">
   </path>
   <polygon id="Fill-8" class="st0" points="339.1,15.2 339.1,15.2 316.4,15.2 316.4,15.2 292.2,82.3 315.5,82.3 327.8,42.3 
			340,82.3 363.6,82.3 		">
   </polygon>
   <polygon id="Fill-12" class="st0" points="208.7,82.3 163.3,82.3 163.3,15.4 208.7,15.4 208.7,33.4 187.5,33.4 187.5,39.9 
			206.3,39.9 206.3,57.2 187.8,57.2 187.8,64.1 208.7,64.1 		">
   </polygon>
   <polygon id="Fill-18" class="st0" points="214.3,82.3 214.3,15.2 238.5,15.2 238.5,60.5 258.8,60.5 258.8,82.3 		">
   </polygon>
   <polygon id="Fill-22" class="st0" points="251.3,36.9 251.3,15.4 302.4,15.4 302.4,36.9 289.6,36.9 289.6,82.3 264.2,82.3 
			264.2,36.9 		">
   </polygon>
  </g>
  <g id="Group-5" transform="translate(184.974 7.637)">
   <path id="Fill-3" class="st0" d="M368.6,16.1h23.9c11.9,22.7,20.3,34,20.3,34v-34c7.8,0,15.8,0,23.9,0c0,16.7,0,40.6,0,66.3h-24.8
			c-4.2-6.9-11.9-20.6-19.4-31.6c0,5.7,0,23.9,0,31.6h-23.9C368.6,73.4,368.9,32.5,368.6,16.1">
   </path>
  </g>
  <path id="Fill-6" class="st0" d="M54.6,24.2L29.8,67.5h50.4L55.2,23L54.6,24.2z M68.4,0L108,67.5L93.4,89.8H12.8L0,68.4l29-45.7
		h24.8h1.2L42.7,0H68.4z">
  </path>
  <polygon id="Fill-10" class="st0" points="714.9,22.7 714.9,22.7 692.2,22.7 668,89.8 691.3,89.8 703.5,49.8 715.8,89.8 
		739.3,89.8 	">
  </polygon>
  <path id="Fill-14" class="st0" d="M458.2,69.5V43.9C479.7,42.1,479.7,71.6,458.2,69.5 M489.5,32.8c-8.1-7.8-18.8-10.1-32.5-10.4
		c0,0-18.5,0.3-23.3,0.3v67.2c14.9,0,35.8,1.2,46-3C499.1,78.8,505.9,49,489.5,32.8">
  </path>
  <polygon id="Fill-16" class="st0" points="548,89.8 502.6,89.8 502.6,22.7 548,22.7 548,40.9 526.8,40.9 526.8,47.5 545.6,47.5 
		545.6,64.8 526.8,64.8 526.8,71.6 548,71.6 	">
  </polygon>
  <polygon id="Fill-20" class="st0" points="742.3,89.8 742.3,22.7 766.5,22.7 766.5,68.1 787.1,68.1 787.1,89.8 	">
  </polygon>
  <polygon id="Fill-24" class="st0" points="626.8,44.5 626.8,22.7 677.8,22.7 677.8,44.5 664.7,44.5 664.7,89.8 639.6,89.8 
		639.6,44.5 	">
  </polygon>
  <path id="Fill-26" class="st0" d="M794.6,26.6c1.2,0,3.3,0.3,3.3-1.5c0-0.9-1.2-1.2-2.4-1.2h-2.7v2.7H794.6z M799,32.5h-1.5l-3-4.5
		h-1.8v4.5h-1.5v-9.8h4.2c1.8,0,3.6,0.6,3.6,2.7c0,2.1-1.5,2.7-3.3,2.7L799,32.5z M802.6,27.8c0-4.2-3.6-7.8-7.8-7.8
		s-7.8,3.3-7.8,7.8s3.6,7.8,7.8,7.8C799,35.5,802.6,31.9,802.6,27.8L802.6,27.8z M785.6,27.8c0-5.1,3.9-9,9.3-9c5.1,0,9.3,3.9,9.3,9
		s-3.9,9-9.3,9C789.8,36.7,785.6,32.8,785.6,27.8L785.6,27.8z">
  </path>
 </g>
</svg>