<svg xmlns:dc="http://purl.org/dc/elements/1.1/" xmlns:cc="http://creativecommons.org/ns#" xmlns:rdf="http://www.w3.org/1999/02/22-rdf-syntax-ns#" xmlns:svg="http://www.w3.org/2000/svg" xmlns="http://www.w3.org/2000/svg" xmlns:xlink="http://www.w3.org/1999/xlink" xml:space="preserve" id="svg2" version="1.1" viewBox="113.44 113.44 800 171.83">
 <metadata id="metadata8">
  <rdf:RDF>
   <cc:Work rdf:about="">
    <dc:format>
     image/svg+xml
    </dc:format>
    <dc:type rdf:resource="http://purl.org/dc/dcmitype/StillImage">
    </dc:type>
   </cc:Work>
  </rdf:RDF>
 </metadata>
 <defs id="defs6">
 </defs>
 <g transform="matrix(1.3333333,0,0,-1.3333333,0,398.70667)" id="g10">
  <g transform="scale(0.1)" id="g12">
   <path id="path14" style="fill:#000000;fill-opacity:1;fill-rule:nonzero;stroke:none" d="m 6424.76,1420.69 c 0,12.76 2.75,25.71 8.3,38.91 5.52,13.17 13.59,25.29 24.23,36.34 10.62,11.05 24.02,20.2 40.18,27.43 16.15,7.22 34.86,10.84 56.12,10.84 21.25,0 39.55,-3.62 54.85,-10.84 15.32,-7.23 28.07,-16.38 38.27,-27.43 10.21,-11.05 17.86,-23.17 22.95,-36.34 5.12,-13.2 7.66,-26.15 7.66,-38.91 z m 338.03,-181.14 c -13.62,-10.2 -35.31,-22.31 -65.05,-36.35 -29.79,-14.02 -68.47,-21.04 -116.09,-21.04 -48.47,0 -86.53,12.12 -114.15,36.36 -27.64,24.23 -41.9,52.49 -42.74,84.81 h 426.03 v 30.62 c 0,50.17 -6.36,96.31 -19.12,138.4 -12.76,42.1 -31.7,78.23 -56.76,108.42 -25.09,30.18 -55.93,53.78 -92.48,70.79 -36.57,17 -79.09,25.51 -127.56,25.51 -48.46,0 -91.84,-8.73 -130.11,-26.14 -38.26,-17.44 -70.58,-40.62 -96.94,-69.52 -26.37,-28.92 -46.56,-62.72 -60.58,-101.41 -14.04,-38.7 -21.06,-78.88 -21.06,-120.53 0,-47.65 7.43,-91.21 22.33,-130.74 14.87,-39.55 36.55,-73.36 65.06,-101.41 28.47,-28.07 63.13,-49.98 103.95,-65.7 40.81,-15.73 86.74,-23.6 137.76,-23.6 38.26,0 72.27,3.63 102.04,10.85 29.76,7.23 55.49,15.51 77.18,24.87 21.68,9.34 39.32,18.92 52.92,28.7 13.61,9.76 23.81,16.78 30.62,21.04 z m -2033.03,-21.68 c -11.93,-8.5 -24.68,-15.94 -38.27,-22.31 -13.61,-6.38 -29.77,-9.58 -48.46,-9.58 -24.68,0 -42.75,7.87 -54.23,23.61 -11.48,15.72 -17.21,38.05 -17.21,66.97 v 235.97 h 154.35 v 144.14 h -154.35 v 160.31 h -183.68 v -160.31 h -94.67 v -144.14 h 94.67 v -225.77 c 0,-37.44 3.82,-71.43 11.48,-102.06 7.65,-30.6 20.41,-56.75 38.27,-78.44 17.84,-21.68 41.23,-38.7 70.15,-51.02 28.9,-12.32 64.61,-18.49 107.14,-18.49 68.02,0 130.95,22.96 188.79,68.88 z m 1590.17,651.82 c -27.23,22.96 -57.4,39.1 -90.57,48.46 -33.16,9.36 -65.91,14.04 -98.22,14.04 -30.61,0 -60.59,-4.9 -89.93,-14.67 -29.33,-9.79 -55.48,-24.67 -78.44,-44.65 -22.96,-19.99 -41.45,-45.28 -55.48,-75.89 -14.04,-30.6 -21.06,-67.19 -21.06,-109.7 v -30.61 h -96.94 v -144.14 h 96.94 v -454.1 h 182.41 v 454.1 h 141.59 v 144.14 h -141.59 v 33.17 c 0,29.75 7.64,52.7 22.96,68.86 15.31,16.15 35.72,24.24 61.22,24.24 16.14,0 31.89,-2.55 47.21,-7.64 15.29,-5.11 29.33,-12.35 42.09,-21.69 z m -807.27,-811.26 h 183.67 v 598.24 h -183.67 z m -640.18,0 h 559.66 v 157.53 H 5065.1 v 693.26 h -192.62 z m -1049.25,362.26 c 0,12.76 2.75,25.71 8.3,38.91 5.53,13.17 13.59,25.29 24.24,36.34 10.61,11.05 24.01,20.2 40.18,27.43 16.15,7.22 34.85,10.84 56.11,10.84 21.26,0 39.55,-3.62 54.86,-10.84 15.31,-7.23 28.06,-16.38 38.27,-27.43 10.2,-11.05 17.86,-23.17 22.95,-36.34 5.12,-13.2 7.66,-26.15 7.66,-38.91 z m 338.03,-181.14 c -13.61,-10.2 -35.3,-22.31 -65.05,-36.35 -29.79,-14.02 -68.47,-21.04 -116.08,-21.04 -48.47,0 -86.54,12.12 -114.15,36.36 -27.65,24.23 -41.9,52.49 -42.75,84.81 h 426.04 v 30.62 c 0,50.17 -6.37,96.31 -19.13,138.4 -12.76,42.1 -31.7,78.23 -56.76,108.42 -25.09,30.18 -55.92,53.78 -92.48,70.79 -36.57,17 -79.08,25.51 -127.55,25.51 -48.47,0 -91.84,-8.73 -130.12,-26.14 -38.26,-17.44 -70.58,-40.62 -96.93,-69.52 -26.38,-28.92 -46.57,-62.72 -60.59,-101.41 -14.03,-38.7 -21.05,-78.88 -21.05,-120.53 0,-47.65 7.43,-91.21 22.32,-130.74 14.87,-39.55 36.56,-73.36 65.06,-101.41 28.47,-28.07 63.14,-49.98 103.95,-65.7 40.81,-15.73 86.74,-23.6 137.76,-23.6 38.27,0 72.27,3.63 102.05,10.85 29.75,7.23 55.49,15.51 77.17,24.87 21.69,9.34 39.32,18.92 52.93,28.7 13.6,9.76 23.81,16.78 30.62,21.04 z M 2682.85,1058.43 h 183.67 l 21.69,552.31 186.24,-327.82 h 99.48 l 176.04,331.65 24.23,-556.14 h 192.6 l -39.53,850.79 h -183.69 l -216.83,-399.24 -221.95,399.24 h -182.4 z m 2921.64,666.65 c -56.74,0 -103.54,46.82 -103.54,103.56 0,56.74 46.8,103.55 103.54,103.55 58.16,0 103.56,-45.4 103.56,-103.55 0,-56.74 -46.82,-103.56 -103.56,-103.56">
   </path>
   <path id="path16" style="fill:#a4ce4e;fill-opacity:1;fill-rule:nonzero;stroke:none" d="m 1550.52,1721.91 c 144.48,-191.28 230.23,-429.57 230.23,-687.95 0,-62.358 -5.07,-123.519 -14.67,-183.159 h 418.31 c 36.38,0 65.87,29.558 65.87,66.019 v 1156.54 c 0,43.08 -40.6,74.96 -82.17,63.98 -249.8,-65.93 -466.01,-214.78 -617.57,-415.43">
   </path>
   <path id="path18" style="fill:#0090da;fill-opacity:1;fill-rule:nonzero;stroke:none" d="m 1334.98,850.801 c -9.61,59.64 -14.68,120.801 -14.68,183.159 0,258.38 85.76,496.67 230.22,687.95 -151.55,200.65 -367.75,349.5 -617.555,415.43 -41.57,10.98 -82.168,-20.9 -82.168,-63.98 V 916.82 c 0,-36.461 29.492,-66.019 65.871,-66.019 h 418.312">
   </path>
   <path id="path20" style="fill:#0061a0;fill-opacity:1;fill-rule:nonzero;stroke:none" d="m 1550.52,1721.91 c -144.46,-191.28 -230.22,-429.57 -230.22,-687.95 0,-62.358 5.07,-123.519 14.68,-183.159 h 431.1 c 9.6,59.64 14.67,120.801 14.67,183.159 0,258.38 -85.75,496.67 -230.23,687.95">
   </path>
  </g>
 </g>
</svg>