<svg xmlns:serif="http://www.serif.com/" xmlns="http://www.w3.org/2000/svg" xmlns:xlink="http://www.w3.org/1999/xlink" version="1.1" id="Layer_1" x="0px" y="0px" style="enable-background:new 0 0 1080 1080;" xml:space="preserve" viewBox="11.5 390.7 1045.4 295.9">
 <style type="text/css">
  .st0{fill:#58595D;}
	.st1{fill:url(#SVGID_1_);}
 </style>
 <g transform="matrix(1,0,0,1,-443,-29)">
  <path class="st0" d="M1374.8,572.9c0,15.5-9.1,24.6-24.2,24.6c-11.1,0-17.8-6-17.8-15.5c0-10.7,8.7-17.1,23.4-17.1   c7.1,0,12.7,0.8,18.7,2V572.9z M1374.8,553.5c-6-1.6-13.9-2.4-21-2.4c-25.4,0-40.5,12.3-40.5,32.5c0,17.9,14.3,29.8,34.9,29.8   c12.3,0,22.2-4.7,29-13.1c2.8,8.4,9.9,13.1,19.4,13.1c4,0,8.3-0.8,11.1-2l-2-15.1c-1.6,0.4-3.6,0.8-5.1,0.8c-4.8,0-6.8-2.4-6.8-7.1   v-41.7c0-22.2-14.7-35.7-38.9-35.7c-11.9,0-25.4,3.2-36.9,8.7l6,15.5c8.4-4.8,18.3-7.6,27.8-7.6c15.1,0,23,6.8,23,19.8V553.5z    M1186.7,515h-19.4v96.4h19.4V515z M1177.2,501.1c7.1,0,12.3-5.2,12.3-12.3c0-7.1-5.2-12.3-12.3-12.3c-7.1,0-12.7,5.1-12.7,12.3   C1164.5,496,1170.1,501.1,1177.2,501.1z M1447.8,596.7c-6.7,0-9.1-2.8-9.1-10.3V474.1h-19.5v115.1c0,15.5,8.7,24.2,25,24.2   c4,0,8.3-0.8,11.1-2l-2-15.5C1451.8,596.3,1449.4,596.7,1447.8,596.7z M1116.9,530.1c8,0,17.1,3.6,24.6,9.2l8.7-14.3   c-8.7-7.5-21.8-12.3-34.1-12.3c-28.2,0-48.8,21-48.8,50.4c0,30.6,19.1,50.4,47.6,50.4c13.5,0,27.4-4.7,35.3-12.3l-8.7-13.9   c-7.2,5.9-15.1,8.7-23.8,8.7c-18.6,0-30.6-12.7-30.6-32.9C1087.1,543.2,1099.1,530.1,1116.9,530.1z M1015.7,512.6   c-12.7,0-23.8,5.6-30.9,14.7l-1.6-12.3h-16.3v96.4h19.4v-54c0-16.3,10.3-27.4,25-27.4c13.1,0,21.4,8.4,21.4,21.4v59.9h19.4v-62.3   C1052.2,527.3,1037.6,512.6,1015.7,512.6z M941.5,611.4v-27.4v-69h-19.4v96.4H941.5z M932,501.1c7.1,0,12.3-5.2,12.3-12.3   c0-7.1-5.2-12.3-12.3-12.3c-7.1,0-12.7,5.1-12.7,12.3C919.3,496,924.9,501.1,932,501.1z M893.9,513.4c-11.1,0-21.4,5.1-27,13.9   l-1.6-12.3h-16.3v96.4h19.5v-52c0-18.7,8.7-28.5,25.4-28.5c2.8,0,6.8,0.8,10.7,1.6l2.4-16.7C903,514.2,898.7,513.4,893.9,513.4z    M762.2,497.2h24.2c18.3,0,29,9.1,29,25.4c0,16.3-10.7,25.4-29,25.4h-24.2V497.2z M741.9,480.1v131.3h20.2V565h27   c27.8,0,46.4-17.1,46.4-42.5c0-25.4-18.7-42.4-46.4-42.4H741.9z M1254.2,596c-8.7,0-18.3-4.4-23-10.3v-29c0-16.2,9.9-26.6,25-26.6   c15.9,0,25.8,11.9,25.8,31C1282,583.3,1271.7,596,1254.2,596z M1260.1,512.6c-12.3,0-23.8,5.2-30.9,14.7l-1.6-12.3h-16.3v135.3   h19.4v-46.4c5.9,5.6,17.1,9.5,26.6,9.5c26.6,0,44.5-21.4,44.5-52.4C1301.8,532.1,1285.1,512.6,1260.1,512.6z">
  </path>
  <linearGradient id="SVGID_1_" gradientUnits="userSpaceOnUse" x1="443" y1="1109" x2="444" y2="1109" gradientTransform="matrix(140.9911 -244.2053 -244.2053 -140.9911 208859.2656 265214.375)">
   <stop offset="0" style="stop-color:#0073C0">
   </stop>
   <stop offset="0.1" style="stop-color:#007AC3">
   </stop>
   <stop offset="0.2" style="stop-color:#0B81C7">
   </stop>
   <stop offset="0.3" style="stop-color:#1688CB">
   </stop>
   <stop offset="0.4" style="stop-color:#218FCF">
   </stop>
   <stop offset="0.5" style="stop-color:#2D97D3">
   </stop>
   <stop offset="0.6" style="stop-color:#2EA1D5">
   </stop>
   <stop offset="0.7" style="stop-color:#30ABD6">
   </stop>
   <stop offset="0.8" style="stop-color:#32B4D7">
   </stop>
   <stop offset="0.9" style="stop-color:#35BED7">
   </stop>
   <stop offset="1" style="stop-color:#37C7D8">
   </stop>
  </linearGradient>
  <path class="st1" d="M454.5,557.7c0,81.9,62.8,150.3,144.4,157.9V611.4c-38.2-3.6-64.4-31.8-64.4-69.2c0-36.2,24.3-62.4,57.7-62.4   c30.6,0,51.3,19.1,51.3,47.3c0,25-15.9,41.4-44.5,45.7v38.6c58.8-1.6,97-37.4,97-91.1c0-58-45.3-100.6-107.4-100.6   C512.2,419.8,454.5,479.4,454.5,557.7z">
  </path>
  <g>
   <path class="st0" d="M1480.2,472.4c11.5,0,19.7,8.2,19.7,19.7c0,11.5-8.2,19.7-19.7,19.7s-19.7-8.2-19.7-19.7    C1460.5,480.6,1468.7,472.4,1480.2,472.4z M1480.2,508.5c9.9,0,16.4-6.6,16.4-16.4c0-9.9-6.6-16.4-16.4-16.4    c-9.9,0-16.4,6.6-16.4,16.4C1463.8,501.9,1470.3,508.5,1480.2,508.5z M1472,481.4h9.9c4.9,0,8.2,3.3,8.2,7.4    c0,3.3-1.6,5.8-4.9,6.6l5.8,8.2h-6.6l-4.9-8.2h-3.3v8.2h-4.9v-22.2H1472z M1476.9,492.1h4.1c2.5,0,3.3-1.6,3.3-3.3    s-1.6-3.3-3.3-3.3h-4.1V492.1z">
   </path>
  </g>
 </g>
</svg>